<svg width="26" height="32" viewBox="0 0 26 32" fill="none" xmlns="http://www.w3.org/2000/svg">
<path d="M19.364 0.0159988C19.296 -0.0600012 16.846 0.0459988 14.714 2.36C12.582 4.672 12.91 7.324 12.958 7.392C13.006 7.46 15.998 7.566 17.908 4.876C19.818 2.186 19.432 0.0939988 19.364 0.0159988ZM25.992 23.482C25.896 23.29 21.342 21.014 21.766 16.638C22.19 12.26 25.116 11.06 25.162 10.93C25.208 10.8 23.968 9.35 22.654 8.616C21.6892 8.0985 20.6215 7.80201 19.528 7.748C19.312 7.742 18.562 7.558 17.02 7.98C16.004 8.258 13.714 9.158 13.084 9.194C12.452 9.23 10.572 8.15 8.55 7.864C7.256 7.614 5.884 8.126 4.902 8.52C3.922 8.912 2.058 10.028 0.754004 12.994C-0.549996 15.958 0.132004 20.654 0.620004 22.114C1.108 23.572 1.87 25.962 3.166 27.706C4.318 29.674 5.846 31.04 6.484 31.504C7.122 31.968 8.922 32.276 10.17 31.638C11.174 31.022 12.986 30.668 13.702 30.694C14.416 30.72 15.824 31.002 17.266 31.772C18.408 32.166 19.488 32.002 20.57 31.562C21.652 31.12 23.218 29.444 25.046 26.046C25.74 24.466 26.056 23.612 25.992 23.482Z" fill="black"/>
<path d="M19.364 0.0159988C19.296 -0.0600012 16.846 0.0459988 14.714 2.36C12.582 4.672 12.91 7.324 12.958 7.392C13.006 7.46 15.998 7.566 17.908 4.876C19.818 2.186 19.432 0.0939988 19.364 0.0159988ZM25.992 23.482C25.896 23.29 21.342 21.014 21.766 16.638C22.19 12.26 25.116 11.06 25.162 10.93C25.208 10.8 23.968 9.35 22.654 8.616C21.6892 8.0985 20.6215 7.80201 19.528 7.748C19.312 7.742 18.562 7.558 17.02 7.98C16.004 8.258 13.714 9.158 13.084 9.194C12.452 9.23 10.572 8.15 8.55 7.864C7.256 7.614 5.884 8.126 4.902 8.52C3.922 8.912 2.058 10.028 0.754004 12.994C-0.549996 15.958 0.132004 20.654 0.620004 22.114C1.108 23.572 1.87 25.962 3.166 27.706C4.318 29.674 5.846 31.04 6.484 31.504C7.122 31.968 8.922 32.276 10.17 31.638C11.174 31.022 12.986 30.668 13.702 30.694C14.416 30.72 15.824 31.002 17.266 31.772C18.408 32.166 19.488 32.002 20.57 31.562C21.652 31.12 23.218 29.444 25.046 26.046C25.74 24.466 26.056 23.612 25.992 23.482Z" fill="black"/>
</svg>
