<svg width="600" height="400" viewBox="0 0 600 400" fill="none" xmlns="http://www.w3.org/2000/svg">
<g clip-path="url(#clip0_209_529)">
<rect width="600" height="400" rx="24" fill="white"/>
<path d="M-61.0935 -149.717H459.821L515.238 -5.95886C464.555 -24.0939 402.12 63.251 348.336 85.1439C294.553 107.037 242.474 81.3457 204.906 131.113C156.8 194.84 91.4648 201.321 50.3914 192.127C-14.4509 169.522 -57.4718 219.966 -80.0003 246.454L-61.0935 -149.717Z" fill="#E9F3F7"/>
<path d="M-61.0935 -189H459.821L515.238 -45.2416C464.555 -63.3766 402.12 23.9683 348.336 45.8611C294.553 67.754 242.474 42.0629 204.906 91.8304C156.8 155.557 91.4648 162.038 50.3914 152.844C-14.4509 130.239 -57.4718 180.684 -80.0003 207.171L-61.0935 -189Z" fill="#C7E1EC"/>
<path d="M691.27 588.278L178.553 680.331L98.6049 548.628C151.695 557.521 197.713 460.517 246.78 429.465C295.848 398.412 351.648 414.496 379.831 358.873C415.918 287.648 479.079 269.723 521.131 271.514C588.948 282.305 622.377 225.052 639.87 195L691.27 588.278Z" fill="#E9F3F7"/>
<path d="M698.212 626.942L185.495 718.995L105.547 587.292C158.636 596.185 204.654 499.182 253.722 468.129C302.79 437.077 358.59 453.16 386.772 397.537C422.86 326.312 486.021 308.388 528.073 310.179C595.889 320.97 629.319 263.717 646.812 233.665L698.212 626.942Z" fill="#C7E1EC"/>
</g>
<defs>
<clipPath id="clip0_209_529">
<rect width="600" height="400" rx="24" fill="white"/>
</clipPath>
</defs>
</svg>
