<svg width="15" height="30" viewBox="0 0 15 30" fill="none" xmlns="http://www.w3.org/2000/svg">
<path d="M3.13125 5.81029C3.13125 6.56597 3.15786 10.2632 3.15786 10.2632H-3.8147e-05V15L3.13125 14.9913L3.15786 30H9.47365V15L13.5186 14.9913C13.5186 14.9913 13.8241 12.9111 14.0131 10.2632C13.4704 10.2632 9.47365 10.2632 9.47365 10.2632C9.47365 10.2632 9.37094 6.98297 9.37094 6.46832C9.37094 5.95232 10.0486 5.25797 10.7186 5.25797H14.1053C14.1053 4.57034 14.1053 2.19434 14.1053 0C12.3606 0 10.3759 0 9.50057 0C2.97754 0 3.13125 5.05532 3.13125 5.81029Z" fill="#1877F2"/>
</svg>
