<svg width="28" height="28" viewBox="0 0 28 28" fill="none" xmlns="http://www.w3.org/2000/svg">
<g clip-path="url(#clip0_16_139)">
<path d="M9.75408 0.920933C6.95645 1.89146 4.54377 3.73355 2.87044 6.17663C1.1971 8.6197 0.351312 11.535 0.457299 14.4943C0.563285 17.4536 1.61546 20.3009 3.45928 22.618C5.3031 24.9351 7.84137 26.5999 10.7013 27.3678C13.0198 27.9661 15.449 27.9924 17.78 27.4444C19.8917 26.9701 21.8439 25.9555 23.4456 24.5C25.1127 22.9389 26.3227 20.9529 26.9456 18.7556C27.6225 16.3661 27.743 13.8533 27.2978 11.41H14.2778V16.8109H21.8181C21.6674 17.6723 21.3445 18.4945 20.8687 19.2282C20.3928 19.9619 19.7738 20.592 19.0488 21.0809C18.1281 21.6902 17.0901 22.1001 16.0016 22.2841C14.9099 22.4871 13.7901 22.4871 12.6985 22.2841C11.5919 22.0555 10.5452 21.5988 9.62502 20.9431C8.14659 19.8966 7.0365 18.4098 6.45314 16.695C5.86009 14.948 5.86009 13.0542 6.45314 11.3072C6.86839 10.0827 7.55484 8.96773 8.46127 8.04562C9.49856 6.971 10.8118 6.20286 12.2569 5.82548C13.702 5.44809 15.2232 5.47603 16.6535 5.90625C17.7708 6.24908 18.7926 6.84835 19.6372 7.65625C20.4874 6.81041 21.3362 5.96239 22.1835 5.11218C22.621 4.655 23.0978 4.21968 23.5288 3.75156C22.2393 2.55175 20.7258 1.6181 19.075 1.00406C16.0687 -0.0875264 12.7793 -0.116862 9.75408 0.920933Z" fill="white"/>
<path d="M9.75407 0.920944C12.7791 -0.117557 16.0685 -0.0889937 19.075 1.00188C20.7261 1.62009 22.2389 2.55824 23.5266 3.76251C23.0891 4.23063 22.6275 4.66813 22.1813 5.12313C21.3325 5.97042 20.4845 6.8148 19.6372 7.65626C18.7926 6.84836 17.7708 6.24909 16.6534 5.90626C15.2236 5.47453 13.7025 5.44497 12.2571 5.82082C10.8116 6.19666 9.4975 6.96339 8.45907 8.03688C7.55265 8.95899 6.86619 10.0739 6.45095 11.2984L1.91626 7.78751C3.5394 4.56873 6.34977 2.10662 9.75407 0.920944Z" fill="#E33629"/>
<path d="M0.713138 11.2656C0.956694 10.0576 1.36135 8.8878 1.91626 7.78751L6.45095 11.3072C5.8579 13.0542 5.8579 14.948 6.45095 16.695C4.94012 17.8617 3.42856 19.0342 1.91626 20.2125C0.52753 17.4482 0.103991 14.2986 0.713138 11.2656Z" fill="#F8BD00"/>
<path d="M14.2778 11.4078H27.2978C27.743 13.8511 27.6225 16.3639 26.9456 18.7534C26.3227 20.9507 25.1127 22.9367 23.4456 24.4978C21.9822 23.3559 20.5122 22.2228 19.0488 21.0809C19.7743 20.5915 20.3936 19.9607 20.8694 19.2262C21.3453 18.4917 21.668 17.6687 21.8181 16.8066H14.2778C14.2756 15.0084 14.2778 13.2081 14.2778 11.4078Z" fill="#587DBD"/>
<path d="M1.91406 20.2125C3.42635 19.0458 4.93792 17.8733 6.44875 16.695C7.03327 18.4104 8.14495 19.8973 9.625 20.9431C10.548 21.5958 11.597 22.0488 12.705 22.2731C13.7967 22.4762 14.9164 22.4762 16.0081 22.2731C17.0967 22.0891 18.1347 21.6793 19.0553 21.07C20.5187 22.2119 21.9888 23.345 23.4522 24.4869C21.8507 25.9432 19.8984 26.9585 17.7866 27.4334C15.4556 27.9814 13.0264 27.9552 10.7078 27.3569C8.87404 26.8673 7.16116 26.0041 5.67656 24.8216C4.10534 23.5739 2.82195 22.0017 1.91406 20.2125Z" fill="#319F43"/>
</g>
<defs>
<clipPath id="clip0_16_139">
<rect width="28" height="28" fill="white"/>
</clipPath>
</defs>
</svg>
