<svg width="25" height="25" viewBox="0 0 25 25" fill="none" xmlns="http://www.w3.org/2000/svg">
<path d="M24.506 0.666504H0.673818C0.66996 0.666504 0.666832 0.669632 0.666832 0.67349V24.5057C0.666832 24.5095 0.66996 24.5127 0.673818 24.5127H24.506C24.5099 24.5127 24.513 24.5095 24.513 24.5057V0.67349C24.513 0.669632 24.5099 0.666504 24.506 0.666504Z" fill="#100609"/>
<path d="M24.506 0.666504H0.673818C0.66996 0.666504 0.666832 0.669632 0.666832 0.67349V24.5057C0.666832 24.5095 0.66996 24.5127 0.673818 24.5127H24.506C24.5099 24.5127 24.513 24.5095 24.513 24.5057V0.67349C24.513 0.669632 24.5099 0.666504 24.506 0.666504Z" fill="url(#paint0_radial_144_264)"/>
<path d="M24.506 0.666504H0.673818C0.66996 0.666504 0.666832 0.669632 0.666832 0.67349V24.5057C0.666832 24.5095 0.66996 24.5127 0.673818 24.5127H24.506C24.5099 24.5127 24.513 24.5095 24.513 24.5057V0.67349C24.513 0.669632 24.5099 0.666504 24.506 0.666504Z" fill="url(#paint1_linear_144_264)"/>
<path d="M15.9897 5.41553H9.18986C7.10634 5.41553 5.41732 7.10455 5.41732 9.18806V15.9879C5.41732 18.0715 7.10634 19.7605 9.18986 19.7605H15.9897C18.0733 19.7605 19.7623 18.0715 19.7623 15.9879V9.18806C19.7623 7.10455 18.0733 5.41553 15.9897 5.41553Z" stroke="white" stroke-width="1.39724"/>
<path d="M12.5898 15.9416C14.4418 15.9416 15.9432 14.4402 15.9432 12.5882C15.9432 10.7362 14.4418 9.23486 12.5898 9.23486C10.7378 9.23486 9.23643 10.7362 9.23643 12.5882C9.23643 14.4402 10.7378 15.9416 12.5898 15.9416Z" stroke="white" stroke-width="1.39724"/>
<path d="M16.8281 8.62774C16.9824 8.62774 17.1075 8.50263 17.1075 8.34829C17.1075 8.19396 16.9824 8.06885 16.8281 8.06885C16.6737 8.06885 16.5486 8.19396 16.5486 8.34829C16.5486 8.50263 16.6737 8.62774 16.8281 8.62774Z" stroke="white" stroke-width="1.39724"/>
<defs>
<radialGradient id="paint0_radial_144_264" cx="0" cy="0" r="1" gradientUnits="userSpaceOnUse" gradientTransform="translate(10.2053 24.5127) scale(23.8462)">
<stop offset="0.1" stop-color="#FFDD55"/>
<stop offset="0.5" stop-color="#FF543E"/>
<stop offset="1" stop-color="#C837AB"/>
</radialGradient>
<linearGradient id="paint1_linear_144_264" x1="0.666832" y1="0.666504" x2="5.43606" y2="24.5127" gradientUnits="userSpaceOnUse">
<stop offset="0.1" stop-color="#3771C8"/>
<stop offset="0.5" stop-color="#6600FF" stop-opacity="0"/>
</linearGradient>
</defs>
</svg>
