<svg width="25" height="24" viewBox="0 0 25 24" fill="none" xmlns="http://www.w3.org/2000/svg">
<path d="M21.2183 20.4495H17.6622V14.8804C17.6622 13.5525 17.6385 11.8429 15.8127 11.8429C13.9606 11.8429 13.6772 13.2899 13.6772 14.7838V20.4491H10.1213V8.99697H13.535V10.562H13.5828C13.9244 9.97787 14.4181 9.49732 15.0112 9.17154C15.6044 8.84577 16.2748 8.68697 16.951 8.71206C20.5553 8.71206 21.2198 11.0828 21.2198 14.167L21.2183 20.4495ZM6.10876 7.43162C4.96904 7.43181 4.04495 6.508 4.04476 5.36828C4.04457 4.22856 4.96829 3.30447 6.10801 3.30428C7.24773 3.304 8.17182 4.22781 8.17201 5.36753C8.17211 5.91484 7.95479 6.43978 7.56786 6.82687C7.18093 7.21396 6.65608 7.4315 6.10876 7.43162ZM7.88682 20.4496H4.32704V8.99697H7.88673V20.4495L7.88682 20.4496ZM22.9911 0.00174674H2.54017C1.5736 -0.00912826 0.780947 0.765153 0.769135 1.73172V22.2679C0.780572 23.235 1.57313 24.01 2.54007 23.9999H22.9911C23.9601 24.0119 24.7557 23.2368 24.7691 22.2679V1.73012C24.7554 0.761684 23.9596 -0.0125033 22.9911 0.00015299" fill="#0A66C2"/>
</svg>
