<svg width="32" height="32" viewBox="0 0 32 32" fill="none" xmlns="http://www.w3.org/2000/svg">
<path fill-rule="evenodd" clip-rule="evenodd" d="M10.76 6.66933C8.63332 6.52266 6.93999 7.75733 5.75599 9.30799C4.56532 10.868 3.72666 12.9347 3.26266 14.9987C2.80132 17.0613 2.68532 19.2507 3.05732 21.084C3.41999 22.8653 4.34266 24.6973 6.28399 25.2773C8.13599 25.8307 9.79732 25.044 11.0667 23.976C12.3387 22.9067 13.44 21.3813 14.328 19.908C15.024 18.752 15.6187 17.5747 16.0853 16.5693C16.552 17.5733 17.1467 18.752 17.8413 19.908C18.7293 21.3813 19.8307 22.9067 21.1027 23.976C22.372 25.044 24.0333 25.8307 25.8853 25.2773C27.8267 24.6973 28.7493 22.8653 29.112 21.084C29.4853 19.2507 29.368 17.0613 28.9067 14.9987C28.4427 12.9347 27.604 10.8667 26.4133 9.30799C25.2307 7.75733 23.5373 6.52133 21.4107 6.66933C19.0987 6.82933 17.4507 8.62799 16.4947 9.98666C16.3528 10.1897 16.2163 10.3964 16.0853 10.6067C15.954 10.3963 15.8171 10.1896 15.6747 9.98666C14.7187 8.62666 13.072 6.83066 10.76 6.66933ZM14.56 13.3693C14.1827 14.3227 13.2667 16.5 12.0427 18.5333C11.2147 19.9093 10.292 21.144 9.34932 21.936C8.40666 22.7293 7.66666 22.9067 7.04932 22.7227C6.52132 22.5653 5.95999 21.976 5.67066 20.5533C5.39332 19.184 5.46132 17.3867 5.86532 15.5827C6.27066 13.7787 6.98266 12.0973 7.87599 10.9253C8.77599 9.74533 9.70132 9.26933 10.5747 9.33066C11.596 9.40133 12.6147 10.2707 13.492 11.52C13.9827 12.2173 14.3493 12.9227 14.5587 13.368L14.56 13.3693ZM17.6107 13.3693C17.9867 14.3227 18.904 16.5 20.1267 18.5333C20.956 19.9093 21.8787 21.144 22.82 21.936C23.764 22.7293 24.5027 22.9067 25.1213 22.7227C25.648 22.5653 26.2093 21.976 26.4987 20.5533C26.7773 19.184 26.7093 17.3867 26.304 15.5827C25.8987 13.7787 25.188 12.0973 24.2933 10.9253C23.3933 9.74533 22.4693 9.26933 21.5947 9.33066C20.5733 9.40133 19.5547 10.2707 18.6773 11.52C18.2709 12.1052 17.9141 12.7234 17.6107 13.368V13.3693Z" fill="#0366FF"/>
</svg>
