<svg width="500" height="443" viewBox="0 0 500 443" fill="none" xmlns="http://www.w3.org/2000/svg">
<path d="M459.398 90.4026L456.659 85.9438C433.57 48.3396 391.818 25.777 347.8 28.4631C342.136 28.8167 336.506 29.5816 330.953 30.7516C290.931 39.2179 256.099 69.0971 241.67 107.378C233.182 129.887 230.807 155.802 214.691 173.669C193.73 196.919 158.135 197.65 126.837 196.694C95.5396 195.737 59.923 196.543 39.0795 219.89C26.0147 234.513 21.889 255.346 22.9634 274.889C25.7461 326.729 45.0102 372.391 91.532 395.437C138.054 418.483 210.147 421.223 261.063 411.081C332.328 396.888 400.155 357.93 440.908 297.677C481.66 237.424 492.017 155.404 459.398 90.4026Z" fill="#EBEBEB"/>
<path d="M61.9195 335.184C67.5494 332.283 74.1677 331.907 80.41 332.939C83.7622 333.497 87.254 334.497 89.5425 337.021C91.831 339.546 92.25 343.973 89.6285 346.132C88.0706 347.422 85.9003 347.615 83.8804 347.594C78.9918 347.54 73.5661 346.68 69.666 349.613C67.4312 351.3 65.9485 354.083 63.2947 354.91C60.6409 355.738 57.74 354.18 56.3648 351.827C55.0939 349.379 54.8131 346.536 55.5805 343.887C55.8951 342.046 56.6309 340.303 57.7305 338.793C58.8301 337.283 60.2638 336.048 61.9195 335.184Z" fill="#942F8B"/>
<path d="M49.0396 310.322C52.4777 315.232 59.1605 313.599 62.2656 310.612C65.3706 307.626 66.6706 303.264 67.8632 299.127C70.5815 289.662 73.332 279.788 71.3013 270.118C70.8171 267.198 69.5342 264.468 67.5946 262.232C66.6145 261.127 65.361 260.299 63.9598 259.831C62.5587 259.364 61.0592 259.273 59.6118 259.567C56.2382 260.459 54.1538 263.758 52.6389 266.906C48.1765 276.172 45.8383 286.317 45.7949 296.602C45.7949 301.383 46.3429 306.401 49.0181 310.355" fill="#942F8B"/>
<path d="M39.5935 317.371C43.3324 312.933 44.0415 306.476 42.3762 300.921C40.7109 295.367 37.0042 290.65 32.6421 286.793C27.5525 282.266 21.6296 278.773 15.2044 276.511C12.7178 275.503 10.0414 275.048 7.36127 275.179C6.02271 275.255 4.72299 275.657 3.57515 276.349C2.42731 277.042 1.46611 278.005 0.775156 279.154C-1.06208 282.656 0.699946 286.9 2.60165 290.371C5.95641 296.474 9.78594 302.305 14.0548 307.808C17.4929 312.235 21.4253 316.597 26.6576 318.552C31.89 320.508 37.3265 320.325 40.1522 316.737" fill="#942F8B"/>
<path d="M48.8124 384.392C48.991 383.663 49.0954 382.918 49.124 382.168C49.2744 380.535 49.4785 378.504 49.7149 376.076C50.0149 373.075 50.4703 370.091 51.0794 367.137C51.8749 363.544 52.9526 360.02 54.3026 356.597C55.6362 353.18 57.4446 349.968 59.6747 347.056C61.4951 344.688 63.8226 342.757 66.4864 341.405C68.3013 340.522 70.2453 339.935 72.2452 339.664C72.9957 339.634 73.741 339.526 74.4693 339.342C73.7195 339.258 72.9627 339.258 72.213 339.342C70.1423 339.499 68.1159 340.023 66.2285 340.889C63.4293 342.214 60.9733 344.166 59.0515 346.594C56.7239 349.547 54.845 352.827 53.4753 356.329C52.0908 359.809 51.0123 363.404 50.2521 367.073C49.6739 370.062 49.2757 373.082 49.0595 376.119C48.8661 378.708 48.8017 380.804 48.7587 382.254C48.6995 382.967 48.7175 383.683 48.8124 384.392Z" fill="#263238"/>
<path d="M49.2306 379.708C49.2709 379.351 49.2709 378.99 49.2306 378.633V375.668C49.2306 373.1 49.2306 369.383 49.3595 364.795C49.5851 355.609 50.4339 345.724 51.9058 331.789C53.3455 318.692 55.2902 303.435 57.3423 293.529C57.7721 291.273 58.2233 289.232 58.6316 287.47C59.0399 285.708 59.373 284.15 59.706 282.904C60.0391 281.657 60.2217 280.755 60.4044 280.035C60.5106 279.686 60.572 279.325 60.587 278.96C60.4223 279.265 60.2994 279.59 60.2217 279.927C59.9961 280.669 59.7168 281.614 59.3622 282.764C59.0077 283.913 58.5886 285.514 58.1481 287.298C57.7076 289.081 57.1919 291.091 56.7084 293.336C54.1785 305.045 52.2705 316.88 50.9926 328.791C49.4669 342.759 48.7793 355.469 48.7148 364.666C48.7148 369.275 48.7148 373.003 48.876 375.571C48.9512 376.774 49.0157 377.72 49.0587 378.526C49.062 378.926 49.1199 379.323 49.2306 379.708Z" fill="#263238"/>
<path d="M49.2835 355.189C49.3654 354.16 49.3654 353.125 49.2835 352.095C49.1085 349.288 48.7929 346.491 48.338 343.715C47.6644 339.598 46.7568 335.523 45.6197 331.51C44.279 326.583 42.562 321.766 40.4841 317.102C36.9273 308.472 31.8304 300.561 25.4424 293.755C24.3355 292.592 23.1586 291.497 21.9183 290.478C21.3704 290.027 20.8976 289.565 20.4034 289.21L19.0389 288.265C18.2435 287.63 17.3993 287.059 16.514 286.556C16.3636 286.75 20.1993 289.017 25.0448 294.163C31.1975 301.031 36.1351 308.898 39.646 317.424C41.6716 322.076 43.3872 326.857 44.7817 331.735C46.114 336.226 47.0057 340.33 47.6718 343.822C48.338 347.314 48.6818 350.151 48.9074 352.127C48.9608 353.156 49.0864 354.179 49.2835 355.189Z" fill="#263238"/>
<path d="M25.5918 398.445L28.0414 432.106H71.2863L73.7467 398.445H25.5918Z" fill="#263238"/>
<path d="M78.9075 385.176H21.416V398.445H78.9075V385.176Z" fill="#263238"/>
<path d="M21.416 430.817V434.492H24.1128H77.9621V430.817H21.416Z" fill="#455A64"/>
<path d="M26.7651 440.97L24.1113 434.491H75.8977L72.8035 440.97H26.7651Z" fill="#455A64"/>
<path d="M72.9427 409.501C72.889 409.61 72.8203 409.711 72.7386 409.802C72.5667 410.038 72.3626 410.317 72.094 410.661L69.5798 413.885L69.4617 414.035L69.3542 413.885L63.1656 405.289H63.5202L57.4283 413.885L57.2349 414.153L57.02 413.906L49.8 405.311H50.219C50.0901 405.461 49.9504 405.633 49.8215 405.805L43.3751 413.906L43.1602 414.175L42.9668 413.895L36.8641 405.3H37.2187C34.2211 408.727 31.664 411.628 29.6979 413.895L29.5689 414.046L29.4722 413.874C28.473 412.219 27.6887 410.887 27.1193 409.931C26.8722 409.501 26.668 409.157 26.5176 408.856C26.4359 408.741 26.3708 408.614 26.3242 408.48C26.3242 408.48 26.4209 408.588 26.5821 408.813L27.2482 409.823L29.7193 413.702H29.483L36.8641 405.042L37.0575 404.827L37.2187 405.064L43.3751 413.659H42.9453L49.3917 405.547L49.7893 405.053L50.0041 404.795L50.2083 405.042C52.7439 408.061 55.172 410.973 57.4176 413.637H57.0093L63.1656 405.042L63.3483 404.795L63.5202 405.042L69.5798 413.702H69.365L71.9865 410.575L72.6849 409.759C72.8496 409.537 72.9356 409.451 72.9427 409.501Z" fill="#E0E0E0"/>
<path d="M74.3493 398.22C74.3493 398.37 63.5085 398.488 50.1537 398.488C36.7988 398.488 25.9473 398.37 25.9473 398.22C25.9473 398.069 36.7773 397.951 50.1537 397.951C63.53 397.951 74.3493 398.069 74.3493 398.22Z" fill="#455A64"/>
<path d="M76.5326 434.857C76.5326 435.007 64.7142 435.125 50.2312 435.125C35.7482 435.125 23.9297 435.007 23.9297 434.857C23.9297 434.706 35.7482 434.588 50.2312 434.588C64.7142 434.588 76.5326 434.706 76.5326 434.857Z" fill="#263238"/>
<path d="M372.251 298.955H472.74C477.051 298.955 481.186 300.668 484.235 303.716C487.283 306.765 488.996 310.9 488.996 315.211V441.583H356.027V315.211C356.027 310.905 357.736 306.775 360.777 303.728C363.819 300.68 367.945 298.964 372.251 298.955Z" fill="#455A64"/>
<path d="M477.801 299.686C477.962 299.686 478.08 331.435 478.08 370.597C478.08 409.759 477.962 441.508 477.801 441.508C477.64 441.508 477.521 409.759 477.521 370.597C477.521 331.435 477.65 299.686 477.801 299.686Z" fill="#263238"/>
<path d="M412.284 144.123C424.513 161.63 431.525 182.247 432.505 203.58C433.128 217.87 431.205 233.094 437.984 245.686C447.718 263.758 468.766 263.145 475.212 282.624C478.017 291.101 472.849 309.742 471.452 318.563C469.873 328.577 475.997 336.989 474.417 347.014C472.967 356.2 466.091 362.754 457.839 367.03C450.49 370.833 443.7 370.941 436.061 367.771C421.492 361.744 409.373 355.383 399.005 343.522C384.436 326.868 380.031 303.769 377.517 281.819C372.03 233.275 373.14 184.213 380.815 135.968" fill="#263238"/>
<path d="M443.428 369.823C443.58 369.774 443.734 369.735 443.89 369.705C444.202 369.63 444.675 369.555 445.276 369.372C449.808 368.139 453.87 365.585 456.944 362.034C458.101 360.68 458.984 359.115 459.544 357.425C460.081 355.501 460.387 353.521 460.458 351.526C460.536 346.924 460.067 342.329 459.061 337.838C458.126 332.96 456.912 327.76 456.547 322.12C456.369 319.24 456.575 316.35 457.159 313.524C457.833 310.59 458.745 307.715 459.888 304.929C461.058 302.071 462.084 299.155 462.961 296.194C463.872 293.167 464.128 289.981 463.713 286.847C463.212 283.729 462.019 280.762 460.221 278.166C458.464 275.639 456.42 273.324 454.129 271.268C449.692 267.121 444.89 263.747 440.785 259.858C433.464 253.083 427.555 244.925 423.401 235.855C421.792 232.384 420.455 228.791 419.405 225.111C418.889 223.511 418.588 221.963 418.223 220.567C417.857 219.17 417.696 217.859 417.46 216.699C417.127 214.346 416.869 212.53 416.804 211.327C416.804 210.725 416.719 210.252 416.697 209.909C416.676 209.565 416.697 209.425 416.697 209.425C416.697 209.425 416.697 209.586 416.772 209.909C416.847 210.231 416.869 210.714 416.944 211.316C417.041 212.552 417.331 214.367 417.696 216.688C417.943 217.848 418.212 219.138 418.502 220.545C418.792 221.953 419.19 223.457 419.727 225.058C420.805 228.701 422.159 232.257 423.777 235.694C427.96 244.681 433.862 252.762 441.151 259.482C445.233 263.285 450.047 266.691 454.527 270.86C456.848 272.946 458.921 275.293 460.705 277.854C462.55 280.521 463.773 283.569 464.283 286.772C464.711 289.981 464.451 293.244 463.52 296.345C462.682 299.396 461.511 302.286 460.425 305.122C459.292 307.875 458.379 310.713 457.696 313.61C457.116 316.396 456.91 319.247 457.084 322.087C457.374 327.653 458.62 332.831 459.544 337.741C460.533 342.271 460.98 346.902 460.877 351.537C460.786 353.566 460.462 355.578 459.91 357.532C459.313 359.252 458.398 360.845 457.213 362.227C455.318 364.426 453.011 366.232 450.423 367.546C448.809 368.402 447.095 369.052 445.319 369.479C444.699 369.642 444.066 369.757 443.428 369.823Z" fill="#455A64"/>
<path d="M243.389 408.212L294.96 383.726C294.96 383.726 315.041 286.224 318.844 278.907C322.648 271.59 338.506 265.262 338.506 265.262L335.852 397.285L331.125 427.766L258.409 434.653L243.389 408.212Z" fill="#942F8B"/>
<path d="M199.389 431.312C199.099 431.312 197.67 432.193 198.862 434.46C200.055 436.727 208.801 444.215 211.369 441.604C213.936 438.994 210.015 435.813 210.015 435.813L199.389 431.312Z" fill="#FFBE9D"/>
<path d="M210.381 435.91C210.381 435.91 220.932 437.242 224.982 438.789C229.398 440.465 234.77 439.316 238.38 436.877C240.431 435.511 242.346 433.949 244.096 432.214L257.547 431.999C259.481 429.735 260.75 426.979 261.213 424.038C261.675 421.096 261.314 418.084 260.169 415.335C259.449 413.423 258.41 411.646 257.096 410.081C255.495 408.351 252.97 406.955 248.608 406.203L232.632 409.652C232.632 409.652 207.921 407.879 203.473 409.963C203.473 409.963 197.939 413.24 196.231 414.615C195.586 415.142 193.62 421.438 197.649 424.715C197.649 424.715 194.147 427.497 196.048 430.001L196.951 431.075C196.951 431.075 194.598 434.126 195.812 435.459C197.026 436.791 207.63 442.98 211.402 441.518C215.173 440.057 212.057 436.522 210.381 435.878" fill="#FFBE9D"/>
<path d="M200.305 419.267C200.751 419.399 201.189 419.557 201.616 419.74C202.443 420.052 203.657 420.503 205.183 420.987C205.935 421.234 206.773 421.481 207.686 421.717C208.6 421.953 209.577 422.158 210.598 422.491C211.708 422.795 212.713 423.401 213.499 424.242C213.932 424.708 214.233 425.282 214.369 425.904C214.505 426.525 214.472 427.172 214.272 427.777C214.02 428.386 213.559 428.885 212.972 429.184C212.42 429.455 211.823 429.622 211.21 429.678C210.086 429.745 208.958 429.684 207.848 429.496C205.988 429.195 204.16 428.72 202.39 428.078C200.875 427.54 199.682 427.003 198.855 426.681C198.417 426.523 197.996 426.321 197.598 426.079C198.047 426.199 198.488 426.346 198.919 426.52C199.757 426.821 200.971 427.283 202.486 427.777C204.236 428.37 206.033 428.813 207.858 429.098C208.924 429.265 210.005 429.316 211.081 429.249C211.638 429.199 212.181 429.046 212.682 428.797C213.169 428.543 213.55 428.124 213.757 427.616C213.93 427.094 213.964 426.535 213.855 425.996C213.746 425.457 213.497 424.956 213.134 424.543C212.401 423.759 211.469 423.191 210.437 422.899C209.448 422.566 208.46 422.351 207.557 422.093C206.655 421.835 205.806 421.567 205.054 421.309C203.528 420.782 202.336 420.234 201.519 419.923C201.095 419.743 200.688 419.524 200.305 419.267Z" fill="#EB996E"/>
<path d="M201.249 411.65C201.694 411.774 202.129 411.932 202.549 412.123C203.387 412.445 204.591 412.907 206.095 413.401C207.599 413.895 209.415 414.476 211.467 414.938C212.593 415.114 213.663 415.548 214.594 416.205C215.087 416.616 215.412 417.193 215.507 417.828C215.601 418.467 215.508 419.12 215.238 419.708C214.965 420.268 214.579 420.766 214.103 421.169C213.628 421.572 213.074 421.872 212.477 422.05C211.393 422.403 210.241 422.495 209.114 422.319C207.281 421.952 205.484 421.427 203.742 420.75L200.186 419.504C199.745 419.366 199.314 419.197 198.896 418.999C199.353 419.075 199.802 419.19 200.239 419.343L203.839 420.417C205.59 421.04 207.386 421.529 209.211 421.878C210.275 422.031 211.359 421.935 212.38 421.599C212.923 421.433 213.426 421.156 213.857 420.786C214.288 420.417 214.637 419.962 214.884 419.45C215.137 418.962 215.223 418.404 215.128 417.862C215.033 417.32 214.762 416.825 214.357 416.453C213.478 415.839 212.472 415.432 211.413 415.26C209.361 414.744 207.545 414.185 206.041 413.627C204.537 413.068 203.355 412.552 202.539 412.209C202.095 412.058 201.663 411.871 201.249 411.65Z" fill="#EB996E"/>
<path d="M206.332 413.799C206.112 413.097 205.951 412.378 205.849 411.65C205.606 410.952 205.43 410.232 205.322 409.501C205.835 410.06 206.168 410.76 206.278 411.51C206.547 412.246 206.566 413.051 206.332 413.799Z" fill="#EB996E"/>
<path d="M243.538 414.143L234.137 410.575C234.137 410.575 208.04 398.392 207.599 399.058C207.159 399.724 205.741 399.638 206.052 402.818C206.364 405.999 221.567 412.423 222.05 413.562C222.534 414.701 221.728 420.245 227.347 424.231C232.966 428.217 237.017 428.314 237.017 428.314" fill="#FFBE9D"/>
<path d="M237.017 428.217H236.769L236.125 428.153C235.297 428.022 234.482 427.824 233.686 427.562C230.756 426.564 228.049 425.006 225.714 422.974C224.133 421.493 223.013 419.587 222.491 417.484C222.221 416.328 222.034 415.154 221.932 413.971C221.914 413.835 221.881 413.702 221.835 413.573C221.774 413.469 221.689 413.381 221.588 413.315C221.343 413.137 221.088 412.972 220.825 412.821C220.299 412.51 219.751 412.209 219.171 411.908C216.914 410.694 214.497 409.48 212.069 408.083C210.824 407.382 209.616 406.618 208.448 405.795C207.844 405.37 207.276 404.896 206.751 404.376C206.471 404.109 206.229 403.806 206.031 403.474C205.924 403.291 205.851 403.091 205.816 402.883C205.795 402.69 205.795 402.496 205.816 402.303C205.73 401.525 205.868 400.738 206.213 400.036C206.427 399.704 206.709 399.422 207.041 399.208C207.176 399.121 207.298 399.016 207.406 398.897C207.406 398.897 207.406 398.897 207.492 398.8C207.544 398.761 207.609 398.741 207.675 398.746C207.735 398.74 207.796 398.74 207.857 398.746L208.147 398.822C209.555 399.251 210.855 399.821 212.155 400.358C214.733 401.432 217.194 402.507 219.536 403.581C224.231 405.73 228.421 407.643 231.945 409.297C232.826 409.695 233.654 410.114 234.449 410.458L236.748 411.36L240.433 412.821L242.754 413.756L243.345 414.014C243.485 414.014 243.549 414.1 243.549 414.11C243.549 414.121 243.474 414.111 243.334 414.046L242.722 413.842L240.369 412.972L236.651 411.65L234.331 410.78C233.514 410.447 232.687 410.038 231.806 409.641L219.364 404.022C217.011 402.947 214.551 401.873 211.972 400.799C210.683 400.272 209.372 399.724 208.018 399.284L207.782 399.23H207.696C207.696 399.23 207.696 399.165 207.696 399.123C207.997 399.316 207.771 399.187 207.836 399.23C207.707 399.389 207.555 399.526 207.384 399.638C207.098 399.814 206.855 400.053 206.675 400.337C206.373 400.968 206.254 401.671 206.332 402.367C206.325 402.703 206.402 403.036 206.557 403.334C206.737 403.632 206.953 403.907 207.202 404.151C207.71 404.651 208.26 405.108 208.846 405.515C210.006 406.353 211.22 407.084 212.423 407.782C214.841 409.179 217.237 410.404 219.504 411.618C220.073 411.929 220.578 412.23 221.169 412.563C221.446 412.721 221.715 412.893 221.975 413.079C222.131 413.184 222.257 413.329 222.34 413.498C222.395 413.655 222.431 413.817 222.448 413.982C222.55 415.152 222.725 416.315 222.974 417.463C223.466 419.51 224.532 421.373 226.047 422.835C228.337 424.86 230.986 426.438 233.858 427.487C234.64 427.763 235.44 427.982 236.254 428.142C236.533 428.207 236.748 428.228 236.898 428.25L237.017 428.217Z" fill="#EB996E"/>
<path d="M208.234 429.442C208.581 429.484 208.918 429.582 209.233 429.732C210.116 430.087 210.945 430.564 211.694 431.15C212.216 431.559 212.692 432.023 213.112 432.536C213.376 432.825 213.58 433.164 213.711 433.533C213.842 433.903 213.898 434.294 213.875 434.685C213.789 435.13 213.58 435.541 213.273 435.873C212.965 436.206 212.571 436.445 212.134 436.565C211.237 436.811 210.286 436.781 209.405 436.479C206.417 435.595 203.518 434.433 200.746 433.009C199.911 432.573 199.1 432.093 198.318 431.569C198.017 431.397 197.739 431.188 197.49 430.946C197.81 431.072 198.116 431.231 198.403 431.419C198.984 431.752 199.822 432.214 200.885 432.73C203.662 434.056 206.535 435.17 209.481 436.06C210.284 436.338 211.151 436.372 211.973 436.157C212.335 436.062 212.663 435.869 212.923 435.6C213.182 435.331 213.363 434.996 213.445 434.631C213.469 434.286 213.424 433.939 213.313 433.611C213.203 433.283 213.029 432.98 212.801 432.719C212.406 432.218 211.96 431.76 211.468 431.354C210.475 430.583 209.389 429.941 208.234 429.442Z" fill="#EB996E"/>
<g opacity="0.3">
<path d="M330.761 427.766C322.316 399.284 314.87 362.603 306.425 334.121C303.331 360.411 307.199 395.126 312.034 421.148C312.603 424.199 312.861 427.186 315.257 429.195L330.761 427.766Z" fill="black"/>
</g>
<path d="M316.931 408.212C316.813 408.212 316.458 406.353 315.309 403.506C314.633 401.847 313.824 400.244 312.891 398.714C311.726 396.858 310.396 395.11 308.916 393.493C307.414 391.893 305.767 390.436 303.995 389.141C302.543 388.09 301.004 387.163 299.397 386.369C296.646 385.016 294.798 384.522 294.83 384.414C295.278 384.466 295.718 384.571 296.141 384.726C296.65 384.854 297.149 385.019 297.635 385.22C298.293 385.45 298.939 385.716 299.569 386.015C301.223 386.773 302.805 387.679 304.296 388.722C306.114 390.017 307.802 391.485 309.335 393.106C310.837 394.764 312.176 396.563 313.332 398.478C314.26 400.042 315.047 401.685 315.685 403.388C315.975 404.108 316.147 404.785 316.329 405.376C316.495 405.878 316.624 406.391 316.716 406.912C316.829 407.338 316.901 407.773 316.931 408.212Z" fill="#263238"/>
<path d="M333.025 263.93C333.025 263.93 306.025 324.258 306.025 335.367C306.025 346.476 326.256 423.393 326.256 423.393C326.063 426.455 325.279 441.787 325.279 441.787L438.725 442.184L440.455 417.795L431.602 394.556L440.444 328.856C440.444 328.856 446.397 290.715 446.891 280.046C447.557 266.702 402.346 251.23 403.582 249.382L395.781 238.896L351.075 275.2L342.233 249.672L331.639 259.675L333.025 263.93Z" fill="#942F8B"/>
<path d="M407.32 279.981C395.039 300.75 372.573 338.59 372.573 338.59L332.305 384.51C332.305 384.51 329.672 407.836 334.937 414.991C340.201 422.147 349.237 427.035 349.237 427.035C349.237 427.035 359.863 427.035 373.368 415.743C386.874 404.451 424.123 357.79 424.123 357.79L436.92 342.351C436.92 342.351 452.176 304.875 449.329 285.805C448.255 278.445 445.096 275.394 440.927 272.02C430.43 263.564 414.185 268.367 407.32 279.981Z" fill="#942F8B"/>
<path d="M441.658 329.35C441.604 329.498 441.539 329.641 441.465 329.78C441.325 330.081 441.121 330.478 440.874 331.005C440.336 332.079 439.52 333.637 438.403 335.614C436.179 339.579 432.719 345.176 428.206 351.934C425.939 355.308 423.415 358.972 420.632 362.861C417.849 366.75 414.69 370.758 412.09 375.442C409.49 380.127 407.127 385.241 404.279 390.355C401.354 395.654 397.926 400.659 394.04 405.3C390.154 409.961 385.582 414.004 380.481 417.29C375.701 420.34 370.361 422.408 364.773 423.372C359.716 424.269 354.523 424.049 349.56 422.727C347.314 422.12 345.149 421.243 343.113 420.116C341.219 419.117 339.439 417.913 337.806 416.528C336.308 415.287 334.966 413.869 333.809 412.305C332.767 410.916 331.881 409.418 331.166 407.836C330.062 405.291 329.337 402.598 329.017 399.842C328.833 398.104 328.772 396.356 328.835 394.61C328.835 394.03 328.899 393.535 328.92 393.245C328.909 393.091 328.909 392.937 328.92 392.783C328.932 392.937 328.932 393.091 328.92 393.245C328.92 393.578 328.92 394.03 328.92 394.61C328.9 396.347 328.993 398.084 329.2 399.81C329.561 402.536 330.313 405.196 331.435 407.707C332.157 409.258 333.043 410.727 334.078 412.09C335.229 413.626 336.564 415.015 338.053 416.227C339.671 417.585 341.433 418.763 343.307 419.74C345.314 420.839 347.446 421.694 349.657 422.286C354.569 423.569 359.702 423.767 364.698 422.867C370.211 421.9 375.478 419.847 380.191 416.828C385.246 413.565 389.778 409.555 393.632 404.935C397.495 400.325 400.902 395.352 403.807 390.086C406.654 385.004 408.953 379.847 411.65 375.184C414.283 370.83 417.153 366.623 420.245 362.582C423.039 358.714 425.617 355.061 427.863 351.709C432.418 344.994 435.921 339.428 438.198 335.507C439.348 333.54 440.197 332.004 440.755 330.951L441.411 329.748C441.478 329.606 441.561 329.473 441.658 329.35Z" fill="#263238"/>
<path d="M330.244 382.458C330.244 382.534 329.675 382.888 328.934 383.716C327.947 384.763 327.339 386.11 327.206 387.544C327.074 388.977 327.425 390.413 328.203 391.623C328.773 392.569 329.278 393.031 329.278 393.095C329.278 393.16 328.601 392.794 327.892 391.849C326.965 390.595 326.533 389.045 326.678 387.493C326.822 385.941 327.534 384.497 328.676 383.436C329.092 382.964 329.637 382.624 330.244 382.458Z" fill="#263238"/>
<path d="M337.688 394.642C337.903 394.671 338.116 394.721 338.321 394.793L339.073 394.997L340.148 395.19C342.38 395.485 344.649 395.272 346.788 394.567C349.969 393.502 352.895 391.79 355.383 389.539C358.339 386.701 361.019 383.589 363.387 380.245C365.793 376.874 368.564 373.778 371.65 371.016C373.111 369.791 374.54 368.706 375.732 367.535C376.868 366.493 377.782 365.232 378.418 363.828C378.845 362.803 379.012 361.688 378.906 360.582C378.799 359.476 378.421 358.414 377.806 357.489C377.287 356.853 376.619 356.355 375.861 356.039C376.074 356.079 376.283 356.14 376.484 356.221C377.063 356.481 377.574 356.871 377.978 357.36C378.659 358.306 379.09 359.408 379.233 360.565C379.376 361.722 379.225 362.896 378.794 363.979C378.154 365.445 377.226 366.767 376.065 367.868C374.851 369.071 373.412 370.189 371.983 371.414C368.948 374.172 366.217 377.248 363.839 380.589C361.442 383.962 358.722 387.093 355.716 389.936C353.176 392.2 350.189 393.906 346.949 394.943C344.75 395.632 342.42 395.79 340.148 395.405L339.073 395.158C338.773 395.072 338.526 394.965 338.332 394.9C338.108 394.84 337.891 394.754 337.688 394.642Z" fill="#263238"/>
<path d="M412.788 273.6C412.652 273.824 412.502 274.04 412.337 274.244C411.982 274.695 411.531 275.319 410.962 276.039C409.737 277.564 408.05 279.842 405.987 282.678C400.729 290.131 395.946 297.907 391.665 305.961C386.594 315.373 382.404 324.107 379.191 330.339C377.601 333.466 376.29 335.98 375.334 337.699L374.292 339.665C374.175 339.9 374.035 340.124 373.873 340.331C373.954 340.082 374.058 339.841 374.185 339.611L375.195 337.581L378.88 330.156C381.996 323.871 386.143 315.115 391.214 305.681C395.499 297.602 400.346 289.833 405.718 282.431C407.867 279.627 409.554 277.371 410.833 275.888L412.294 274.158C412.438 273.955 412.603 273.767 412.788 273.6Z" fill="#263238"/>
<g opacity="0.3">
<path d="M328.955 392.783C334.187 395.62 339.946 395.319 345.791 394.18C351.692 393.001 357.005 389.82 360.833 385.177C359.949 390.348 357.526 395.133 353.881 398.907C350.164 402.55 344.77 404.656 339.656 403.721C334.542 402.786 329.363 397.973 328.912 392.783" fill="black"/>
</g>
<g opacity="0.3">
<path d="M378.482 361.776C381.804 366.896 382.962 373.123 381.706 379.096C386.143 372.305 387.185 363.71 386.003 355.684C384.821 347.658 381.544 340.084 377.913 332.832C377.913 332.832 373.916 339.6 373.873 340.353C373.68 344.263 375.119 351.612 375.872 355.448C376.875 356.411 377.623 357.609 378.049 358.933C378.474 360.257 378.564 361.666 378.31 363.033" fill="black"/>
</g>
<g opacity="0.3">
<path d="M346.701 420.89C357.381 429.217 373.228 429.603 384.907 422.77C396.156 416.184 403.086 404.323 409.511 392.988C419.471 375.432 431.612 353.718 438.724 334.83C438.724 334.83 418.794 362.023 412.788 373.745C408.784 381.669 404.239 389.308 399.186 396.608C393.468 404.834 385.737 411.457 376.731 415.845C367.725 420.233 357.745 422.24 347.743 421.674" fill="black"/>
</g>
<path d="M325.277 441.734C325.26 441.623 325.26 441.511 325.277 441.4C325.277 441.143 325.277 440.82 325.277 440.423C325.277 439.51 325.352 438.274 325.417 436.695C325.567 433.471 325.771 428.851 326.029 423.34V423.469C324.106 417.022 321.85 409.201 319.508 400.756C316.413 389.56 313.803 379.375 312.04 371.972C311.17 368.276 310.483 365.268 310.053 363.184C309.849 362.184 309.688 361.379 309.569 360.788C309.506 360.508 309.459 360.224 309.43 359.939C309.538 360.202 309.621 360.476 309.677 360.756L310.268 363.141C310.794 365.29 311.525 368.233 312.417 371.876C314.275 379.257 316.951 389.421 320.045 400.605C322.376 409.05 324.6 416.872 326.491 423.329V423.404C326.158 428.916 325.879 433.504 325.675 436.77C325.567 438.328 325.481 439.574 325.417 440.487C325.417 440.874 325.352 441.196 325.331 441.454C325.325 441.549 325.307 441.643 325.277 441.734Z" fill="#263238"/>
<path d="M438.759 271.397C438.759 271.483 437.598 271.075 435.739 270.613C433.315 270.001 430.835 269.641 428.337 269.538C425.838 269.47 423.339 269.664 420.88 270.118C418.989 270.473 417.84 270.795 417.818 270.709C418.057 270.556 418.318 270.44 418.592 270.365C419.315 270.116 420.05 269.905 420.794 269.731C423.258 269.157 425.786 268.904 428.315 268.979C430.864 269.056 433.391 269.46 435.836 270.183C436.568 270.396 437.286 270.654 437.985 270.956C438.522 271.225 438.759 271.354 438.759 271.397Z" fill="#263238"/>
<path d="M402.841 251.563C402.763 251.759 402.666 251.946 402.551 252.122L401.638 253.658C400.832 254.99 399.639 256.881 398.124 259.234C395.084 263.887 390.732 270.236 385.586 276.984C381.45 282.431 377.442 287.319 374.165 291.144L373.929 291.413L373.789 291.091C372.22 287.674 370.931 284.837 369.996 282.785C369.577 281.84 369.244 281.066 368.976 280.475C368.844 280.211 368.739 279.934 368.664 279.648C368.837 279.89 368.984 280.15 369.105 280.422C369.395 281.002 369.76 281.754 370.233 282.678C371.21 284.709 372.564 287.513 374.186 290.908L373.821 290.854C377.044 286.986 381.009 282.087 385.145 276.651C390.281 269.903 394.665 263.607 397.791 259.009L401.455 253.54L402.454 252.057C402.561 251.876 402.691 251.71 402.841 251.563Z" fill="#263238"/>
<path d="M428.958 424.833C428.797 424.833 429.291 419.235 430.033 412.37C430.774 405.504 431.537 399.961 431.687 399.982C431.838 400.003 431.343 405.569 430.613 412.434C429.882 419.3 429.087 424.844 428.958 424.833Z" fill="#263238"/>
<path d="M351.193 423.361C351.804 426.456 352.231 429.584 352.472 432.73C352.907 435.853 353.147 439 353.192 442.152C352.588 439.056 352.161 435.928 351.913 432.783C351.491 429.659 351.251 426.513 351.193 423.361Z" fill="#263238"/>
<path d="M408.577 300.653C408.524 300.44 408.422 300.242 408.278 300.076C408.134 299.911 407.952 299.782 407.748 299.701C407.544 299.62 407.323 299.589 407.105 299.611C406.887 299.633 406.676 299.706 406.492 299.826L406.417 299.89C406.249 300.04 406.122 300.232 406.05 300.446C405.978 300.66 405.963 300.889 406.007 301.11C406.05 301.332 406.151 301.538 406.298 301.709C406.445 301.88 406.635 302.01 406.848 302.085C407.06 302.161 407.289 302.18 407.511 302.14C407.733 302.1 407.941 302.003 408.115 301.859C408.288 301.714 408.421 301.527 408.5 301.316C408.579 301.104 408.602 300.876 408.566 300.653H408.577Z" fill="white"/>
<path d="M397.371 273.341C397.318 273.128 397.216 272.931 397.072 272.765C396.928 272.599 396.746 272.471 396.542 272.39C396.338 272.309 396.117 272.278 395.899 272.299C395.68 272.321 395.47 272.395 395.286 272.514L395.222 272.579C395.053 272.729 394.927 272.92 394.855 273.134C394.783 273.348 394.768 273.577 394.811 273.799C394.855 274.02 394.955 274.227 395.103 274.398C395.25 274.569 395.439 274.698 395.652 274.774C395.865 274.849 396.094 274.868 396.316 274.829C396.538 274.789 396.746 274.692 396.92 274.547C397.093 274.403 397.226 274.216 397.305 274.004C397.384 273.793 397.407 273.564 397.371 273.341Z" fill="white"/>
<path d="M371.659 295.335C371.607 295.122 371.505 294.924 371.36 294.758C371.216 294.593 371.035 294.464 370.831 294.383C370.627 294.302 370.406 294.271 370.188 294.293C369.969 294.314 369.759 294.388 369.575 294.507H369.51C369.342 294.657 369.215 294.848 369.143 295.062C369.071 295.275 369.055 295.504 369.098 295.725C369.14 295.947 369.24 296.153 369.387 296.324C369.533 296.496 369.722 296.626 369.934 296.702C370.146 296.778 370.374 296.798 370.596 296.76C370.819 296.721 371.027 296.626 371.201 296.482C371.375 296.339 371.509 296.153 371.589 295.942C371.669 295.732 371.693 295.504 371.659 295.281V295.335Z" fill="white"/>
<path d="M343.865 284.29C343.814 284.077 343.713 283.879 343.57 283.713C343.427 283.547 343.246 283.419 343.043 283.337C342.839 283.256 342.62 283.225 342.402 283.247C342.184 283.269 341.974 283.343 341.791 283.462L341.716 283.527C341.547 283.677 341.421 283.869 341.349 284.083C341.277 284.297 341.262 284.526 341.306 284.747C341.349 284.969 341.449 285.175 341.597 285.346C341.744 285.517 341.934 285.647 342.146 285.722C342.359 285.798 342.588 285.816 342.81 285.777C343.032 285.737 343.24 285.64 343.414 285.496C343.587 285.351 343.72 285.164 343.799 284.952C343.878 284.741 343.901 284.512 343.865 284.29Z" fill="white"/>
<path d="M338.956 273.406C338.904 273.193 338.802 272.995 338.657 272.83C338.513 272.664 338.332 272.535 338.127 272.454C337.923 272.373 337.703 272.342 337.484 272.364C337.266 272.386 337.056 272.459 336.872 272.579L336.797 272.643C336.623 272.793 336.492 272.986 336.417 273.203C336.341 273.419 336.324 273.652 336.366 273.877C336.409 274.102 336.51 274.312 336.659 274.487C336.808 274.661 337 274.793 337.216 274.87C337.432 274.946 337.664 274.965 337.89 274.924C338.115 274.883 338.326 274.783 338.501 274.635C338.676 274.487 338.809 274.295 338.887 274.08C338.965 273.864 338.985 273.632 338.945 273.406H338.956Z" fill="white"/>
<path d="M341.094 260.835C341.042 260.622 340.939 260.424 340.795 260.259C340.651 260.093 340.469 259.965 340.265 259.884C340.061 259.803 339.841 259.772 339.622 259.793C339.404 259.815 339.194 259.889 339.009 260.008L338.934 260.062C338.766 260.212 338.639 260.403 338.567 260.616C338.494 260.83 338.479 261.058 338.522 261.28C338.564 261.501 338.664 261.707 338.81 261.879C338.957 262.05 339.146 262.18 339.358 262.256C339.57 262.333 339.798 262.353 340.02 262.314C340.242 262.276 340.451 262.18 340.625 262.037C340.799 261.893 340.932 261.707 341.013 261.497C341.093 261.286 341.117 261.058 341.083 260.835H341.094Z" fill="white"/>
<path d="M325.697 278.134C325.645 277.92 325.543 277.723 325.399 277.557C325.254 277.391 325.073 277.263 324.869 277.182C324.665 277.101 324.444 277.07 324.226 277.091C324.007 277.113 323.797 277.187 323.613 277.306L323.538 277.36C323.369 277.51 323.243 277.701 323.17 277.914C323.098 278.128 323.082 278.356 323.125 278.578C323.168 278.799 323.267 279.006 323.414 279.177C323.561 279.348 323.749 279.478 323.961 279.555C324.173 279.631 324.402 279.651 324.624 279.612C324.846 279.574 325.054 279.478 325.228 279.335C325.402 279.192 325.536 279.005 325.616 278.795C325.697 278.584 325.721 278.356 325.686 278.134H325.697Z" fill="white"/>
<path d="M361.402 283.118C361.351 282.905 361.25 282.708 361.107 282.542C360.964 282.376 360.783 282.247 360.58 282.166C360.376 282.085 360.157 282.054 359.939 282.076C359.721 282.098 359.512 282.172 359.328 282.291L359.253 282.356C359.085 282.506 358.958 282.697 358.886 282.911C358.814 283.125 358.799 283.354 358.843 283.576C358.886 283.797 358.986 284.004 359.134 284.175C359.281 284.346 359.471 284.475 359.683 284.551C359.896 284.626 360.125 284.645 360.347 284.606C360.569 284.566 360.777 284.469 360.951 284.324C361.124 284.18 361.257 283.993 361.336 283.781C361.415 283.57 361.438 283.341 361.402 283.118Z" fill="white"/>
<path d="M331.166 305.541C331.114 305.328 331.011 305.13 330.867 304.965C330.723 304.799 330.541 304.671 330.337 304.59C330.133 304.509 329.913 304.478 329.694 304.499C329.476 304.521 329.266 304.595 329.082 304.714H329.006C328.838 304.864 328.711 305.055 328.639 305.268C328.567 305.482 328.551 305.711 328.594 305.932C328.637 306.153 328.736 306.36 328.883 306.531C329.029 306.702 329.218 306.832 329.43 306.909C329.642 306.985 329.87 307.005 330.093 306.967C330.315 306.928 330.523 306.832 330.697 306.689C330.871 306.546 331.005 306.36 331.085 306.149C331.165 305.938 331.19 305.711 331.155 305.488L331.166 305.541Z" fill="white"/>
<path d="M303.532 370.027C303.48 369.814 303.378 369.616 303.234 369.451C303.089 369.285 302.908 369.157 302.704 369.076C302.5 368.995 302.279 368.964 302.061 368.985C301.842 369.007 301.632 369.081 301.448 369.2L301.383 369.254C301.215 369.404 301.088 369.595 301.016 369.808C300.944 370.022 300.928 370.25 300.971 370.472C301.014 370.693 301.113 370.899 301.26 371.071C301.406 371.242 301.595 371.372 301.807 371.448C302.019 371.525 302.247 371.545 302.469 371.506C302.692 371.468 302.9 371.372 303.074 371.229C303.248 371.085 303.382 370.899 303.462 370.689C303.542 370.478 303.567 370.25 303.532 370.027Z" fill="white"/>
<path d="M313.395 332.831C313.343 332.618 313.24 332.421 313.096 332.255C312.952 332.089 312.77 331.961 312.566 331.88C312.362 331.799 312.142 331.768 311.923 331.789C311.705 331.811 311.495 331.885 311.311 332.004L311.235 332.069C311.067 332.219 310.941 332.41 310.869 332.624C310.797 332.838 310.782 333.067 310.825 333.289C310.869 333.51 310.969 333.717 311.116 333.888C311.264 334.059 311.453 334.188 311.666 334.264C311.879 334.339 312.107 334.358 312.33 334.319C312.552 334.279 312.76 334.182 312.933 334.037C313.107 333.893 313.239 333.706 313.318 333.494C313.398 333.283 313.42 333.054 313.384 332.831H313.395Z" fill="white"/>
<path d="M386.111 267.529C386.059 267.316 385.957 267.118 385.813 266.952C385.668 266.787 385.487 266.658 385.283 266.577C385.079 266.496 384.858 266.465 384.64 266.487C384.421 266.508 384.211 266.582 384.027 266.702L383.952 266.755C383.783 266.905 383.657 267.096 383.584 267.31C383.512 267.523 383.496 267.752 383.539 267.973C383.582 268.194 383.681 268.401 383.828 268.572C383.975 268.743 384.163 268.874 384.375 268.95C384.587 269.026 384.816 269.046 385.038 269.008C385.26 268.969 385.468 268.874 385.642 268.73C385.816 268.587 385.95 268.401 386.03 268.19C386.111 267.98 386.135 267.752 386.101 267.529H386.111Z" fill="white"/>
<path d="M420.749 341.577C420.697 341.364 420.594 341.166 420.45 341C420.306 340.835 420.124 340.706 419.92 340.625C419.716 340.544 419.496 340.513 419.277 340.535C419.059 340.557 418.849 340.63 418.665 340.75L418.589 340.814C418.416 340.964 418.285 341.157 418.21 341.374C418.134 341.59 418.117 341.823 418.159 342.048C418.202 342.273 418.303 342.483 418.452 342.657C418.601 342.832 418.793 342.964 419.009 343.04C419.225 343.117 419.457 343.136 419.683 343.095C419.908 343.053 420.119 342.954 420.294 342.806C420.469 342.658 420.602 342.466 420.68 342.251C420.758 342.035 420.778 341.803 420.738 341.577H420.749Z" fill="white"/>
<path d="M434.257 277.854C434.206 277.641 434.105 277.443 433.962 277.278C433.819 277.112 433.638 276.983 433.435 276.902C433.231 276.821 433.012 276.79 432.794 276.812C432.576 276.833 432.366 276.907 432.183 277.027L432.108 277.081C431.94 277.23 431.813 277.421 431.741 277.635C431.668 277.848 431.653 278.077 431.695 278.298C431.738 278.52 431.838 278.726 431.984 278.897C432.131 279.069 432.319 279.199 432.532 279.275C432.744 279.351 432.972 279.371 433.194 279.333C433.416 279.294 433.624 279.199 433.798 279.055C433.972 278.912 434.106 278.726 434.187 278.515C434.267 278.305 434.291 278.077 434.257 277.854Z" fill="white"/>
<path d="M428.958 319.584C428.906 319.371 428.803 319.173 428.659 319.008C428.515 318.842 428.333 318.713 428.129 318.632C427.925 318.551 427.705 318.52 427.486 318.542C427.268 318.564 427.058 318.637 426.874 318.757L426.798 318.821C426.625 318.971 426.494 319.164 426.419 319.381C426.343 319.597 426.326 319.83 426.368 320.055C426.411 320.28 426.512 320.49 426.661 320.665C426.81 320.839 427.002 320.971 427.218 321.047C427.434 321.124 427.666 321.143 427.892 321.102C428.117 321.06 428.328 320.961 428.503 320.813C428.678 320.665 428.811 320.473 428.889 320.258C428.967 320.042 428.987 319.81 428.947 319.584H428.958Z" fill="white"/>
<path d="M398.649 349.721C398.597 349.508 398.494 349.31 398.35 349.145C398.206 348.979 398.024 348.85 397.82 348.769C397.616 348.688 397.396 348.657 397.177 348.679C396.959 348.701 396.749 348.774 396.565 348.894L396.489 348.958C396.321 349.109 396.194 349.3 396.122 349.514C396.051 349.728 396.036 349.957 396.079 350.179C396.122 350.4 396.223 350.607 396.37 350.777C396.518 350.948 396.707 351.078 396.92 351.154C397.133 351.229 397.361 351.248 397.583 351.208C397.806 351.168 398.014 351.072 398.187 350.927C398.361 350.782 398.493 350.595 398.572 350.384C398.651 350.172 398.674 349.944 398.638 349.721H398.649Z" fill="white"/>
<path d="M399.929 324.623C399.877 324.41 399.774 324.212 399.63 324.047C399.486 323.881 399.304 323.752 399.1 323.671C398.896 323.59 398.676 323.559 398.457 323.581C398.239 323.603 398.029 323.676 397.844 323.796L397.769 323.86C397.596 324.01 397.465 324.203 397.389 324.42C397.314 324.636 397.297 324.869 397.339 325.094C397.382 325.319 397.482 325.529 397.631 325.704C397.78 325.878 397.973 326.01 398.189 326.086C398.405 326.163 398.637 326.182 398.863 326.141C399.088 326.099 399.299 326 399.474 325.852C399.649 325.704 399.782 325.512 399.86 325.297C399.938 325.081 399.958 324.849 399.918 324.623H399.929Z" fill="white"/>
<path d="M418.205 278.069C418.154 277.856 418.053 277.658 417.91 277.493C417.767 277.327 417.586 277.198 417.383 277.117C417.179 277.036 416.959 277.005 416.742 277.026C416.524 277.048 416.314 277.122 416.131 277.242L416.056 277.306C415.887 277.456 415.761 277.648 415.689 277.862C415.617 278.076 415.602 278.305 415.645 278.526C415.689 278.748 415.789 278.954 415.937 279.125C416.084 279.296 416.273 279.426 416.486 279.501C416.699 279.577 416.928 279.596 417.15 279.556C417.372 279.516 417.58 279.419 417.754 279.275C417.927 279.13 418.06 278.943 418.139 278.732C418.218 278.52 418.241 278.292 418.205 278.069Z" fill="white"/>
<path d="M393.632 253.766C393.581 253.553 393.48 253.355 393.337 253.19C393.194 253.024 393.013 252.895 392.81 252.814C392.606 252.733 392.387 252.702 392.169 252.723C391.951 252.745 391.741 252.819 391.558 252.939L391.483 252.992C391.315 253.142 391.188 253.333 391.116 253.547C391.043 253.76 391.028 253.989 391.07 254.21C391.113 254.432 391.213 254.638 391.359 254.809C391.506 254.98 391.694 255.111 391.907 255.187C392.119 255.263 392.347 255.283 392.569 255.245C392.791 255.206 392.999 255.111 393.173 254.967C393.347 254.824 393.481 254.638 393.562 254.427C393.642 254.217 393.666 253.989 393.632 253.766Z" fill="white"/>
<path d="M392.698 292.95C392.648 292.735 392.547 292.536 392.403 292.369C392.26 292.202 392.077 292.072 391.873 291.991C391.668 291.909 391.446 291.879 391.227 291.902C391.008 291.925 390.797 292 390.614 292.122L390.549 292.176C390.381 292.326 390.254 292.517 390.182 292.73C390.11 292.944 390.094 293.173 390.137 293.394C390.18 293.615 390.279 293.822 390.426 293.993C390.572 294.164 390.761 294.294 390.973 294.371C391.185 294.447 391.413 294.467 391.635 294.428C391.858 294.39 392.066 294.294 392.24 294.151C392.414 294.008 392.548 293.822 392.628 293.611C392.708 293.4 392.733 293.172 392.698 292.95Z" fill="white"/>
<path d="M361.282 412.477C361.229 412.271 361.129 412.079 360.989 411.919C360.848 411.758 360.673 411.633 360.475 411.552C360.278 411.472 360.064 411.439 359.852 411.456C359.639 411.473 359.434 411.539 359.252 411.65L359.176 411.704C359.008 411.853 358.881 412.044 358.809 412.258C358.737 412.471 358.721 412.7 358.764 412.921C358.807 413.143 358.906 413.349 359.053 413.52C359.199 413.692 359.388 413.822 359.6 413.898C359.812 413.975 360.04 413.994 360.262 413.956C360.485 413.917 360.693 413.822 360.867 413.678C361.041 413.535 361.175 413.349 361.255 413.138C361.335 412.928 361.359 412.7 361.325 412.477H361.282Z" fill="white"/>
<path d="M325.237 392.816C325.185 392.603 325.082 392.405 324.938 392.239C324.794 392.074 324.612 391.945 324.408 391.864C324.204 391.783 323.984 391.752 323.765 391.774C323.547 391.795 323.337 391.869 323.152 391.989L323.077 392.053C322.909 392.203 322.782 392.395 322.71 392.609C322.638 392.823 322.623 393.052 322.667 393.273C322.71 393.495 322.811 393.701 322.958 393.872C323.106 394.043 323.295 394.173 323.508 394.248C323.72 394.324 323.949 394.343 324.171 394.303C324.394 394.263 324.602 394.166 324.775 394.022C324.948 393.877 325.081 393.69 325.16 393.479C325.239 393.267 325.262 393.039 325.226 392.816H325.237Z" fill="white"/>
<path d="M296.087 402.453C296.035 402.24 295.932 402.042 295.788 401.876C295.644 401.711 295.462 401.582 295.258 401.501C295.054 401.42 294.834 401.389 294.615 401.411C294.397 401.432 294.187 401.506 294.003 401.626L293.938 401.679C293.77 401.829 293.643 402.02 293.571 402.234C293.498 402.447 293.483 402.676 293.526 402.897C293.568 403.118 293.668 403.325 293.814 403.496C293.961 403.667 294.15 403.798 294.362 403.874C294.574 403.95 294.802 403.97 295.024 403.932C295.246 403.893 295.455 403.797 295.629 403.654C295.803 403.511 295.936 403.325 296.017 403.114C296.097 402.904 296.121 402.676 296.087 402.453Z" fill="white"/>
<path d="M292.969 419.053C292.917 418.84 292.814 418.642 292.67 418.476C292.526 418.311 292.344 418.182 292.14 418.101C291.936 418.02 291.716 417.989 291.497 418.011C291.279 418.032 291.069 418.106 290.884 418.225L290.809 418.279C290.641 418.429 290.514 418.62 290.442 418.834C290.369 419.047 290.354 419.276 290.397 419.497C290.439 419.718 290.539 419.925 290.685 420.096C290.832 420.267 291.021 420.398 291.233 420.474C291.445 420.55 291.673 420.57 291.895 420.532C292.117 420.493 292.326 420.397 292.5 420.254C292.674 420.111 292.807 419.925 292.888 419.714C292.968 419.503 292.992 419.276 292.958 419.053H292.969Z" fill="white"/>
<path d="M320.294 424.607C320.242 424.394 320.14 424.196 319.996 424.031C319.852 423.865 319.67 423.737 319.466 423.656C319.262 423.575 319.041 423.544 318.823 423.565C318.604 423.587 318.394 423.661 318.21 423.78L318.146 423.845C317.977 423.995 317.851 424.186 317.779 424.4C317.707 424.614 317.692 424.843 317.735 425.065C317.779 425.286 317.879 425.493 318.026 425.664C318.174 425.835 318.363 425.964 318.576 426.04C318.789 426.115 319.018 426.134 319.24 426.094C319.462 426.055 319.67 425.958 319.843 425.813C320.017 425.669 320.15 425.482 320.229 425.27C320.308 425.059 320.33 424.83 320.294 424.607Z" fill="white"/>
<path d="M311.159 387.433C311.107 387.22 311.005 387.022 310.86 386.856C310.716 386.691 310.535 386.562 310.331 386.481C310.127 386.4 309.906 386.369 309.688 386.391C309.469 386.413 309.259 386.486 309.075 386.606L309 386.67C308.826 386.82 308.695 387.013 308.62 387.23C308.544 387.446 308.527 387.678 308.57 387.904C308.612 388.129 308.713 388.339 308.862 388.513C309.011 388.688 309.203 388.82 309.419 388.896C309.635 388.973 309.868 388.992 310.093 388.95C310.319 388.909 310.529 388.81 310.704 388.662C310.879 388.514 311.012 388.322 311.09 388.107C311.168 387.891 311.188 387.659 311.148 387.433H311.159Z" fill="white"/>
<path d="M344.681 396.887C344.631 396.673 344.53 396.473 344.386 396.306C344.242 396.139 344.06 396.01 343.855 395.928C343.65 395.847 343.429 395.816 343.209 395.839C342.99 395.862 342.78 395.938 342.596 396.06L342.532 396.114C342.363 396.264 342.237 396.455 342.164 396.668C342.092 396.882 342.077 397.11 342.119 397.332C342.162 397.553 342.262 397.759 342.408 397.931C342.555 398.102 342.743 398.232 342.955 398.309C343.167 398.385 343.396 398.405 343.618 398.366C343.84 398.328 344.048 398.232 344.222 398.089C344.396 397.945 344.53 397.759 344.61 397.549C344.691 397.338 344.715 397.11 344.681 396.887Z" fill="white"/>
<path d="M424.37 387.379C424.322 387.165 424.222 386.965 424.079 386.798C423.937 386.631 423.755 386.501 423.551 386.419C423.347 386.338 423.126 386.308 422.907 386.331C422.689 386.354 422.479 386.43 422.296 386.552L422.221 386.606C422.053 386.755 421.926 386.946 421.854 387.16C421.782 387.373 421.766 387.602 421.809 387.823C421.851 388.045 421.951 388.251 422.098 388.422C422.244 388.594 422.433 388.724 422.645 388.8C422.857 388.877 423.085 388.896 423.307 388.858C423.529 388.819 423.738 388.724 423.912 388.58C424.086 388.437 424.219 388.251 424.3 388.04C424.38 387.83 424.404 387.602 424.37 387.379Z" fill="white"/>
<path d="M375.067 434.621C375.015 434.408 374.912 434.21 374.768 434.044C374.624 433.879 374.442 433.75 374.238 433.669C374.034 433.588 373.814 433.557 373.595 433.579C373.377 433.6 373.167 433.674 372.982 433.793L372.907 433.858C372.739 434.008 372.612 434.2 372.54 434.414C372.469 434.628 372.454 434.857 372.497 435.078C372.54 435.3 372.641 435.506 372.788 435.677C372.936 435.848 373.125 435.978 373.338 436.053C373.551 436.129 373.779 436.148 374.001 436.108C374.224 436.068 374.432 435.971 374.605 435.827C374.779 435.682 374.911 435.495 374.99 435.283C375.069 435.072 375.092 434.844 375.056 434.621H375.067Z" fill="white"/>
<path d="M396.091 408.319C396.041 408.106 395.94 407.909 395.797 407.743C395.653 407.577 395.473 407.448 395.269 407.367C395.066 407.286 394.846 407.255 394.628 407.277C394.41 407.298 394.201 407.372 394.018 407.492L393.942 407.556C393.774 407.707 393.648 407.898 393.576 408.112C393.504 408.326 393.489 408.555 393.532 408.777C393.576 408.998 393.676 409.205 393.823 409.376C393.971 409.547 394.16 409.676 394.373 409.752C394.586 409.827 394.814 409.846 395.037 409.806C395.259 409.767 395.467 409.67 395.64 409.525C395.814 409.381 395.946 409.193 396.026 408.982C396.105 408.771 396.127 408.542 396.091 408.319Z" fill="white"/>
<path d="M408.585 429.711C408.537 429.497 408.439 429.298 408.299 429.13C408.158 428.962 407.98 428.829 407.778 428.744C407.576 428.659 407.357 428.624 407.139 428.64C406.92 428.657 406.709 428.726 406.523 428.84L406.458 428.905C406.29 429.055 406.163 429.247 406.091 429.461C406.019 429.675 406.004 429.904 406.048 430.125C406.091 430.347 406.192 430.553 406.339 430.724C406.486 430.895 406.676 431.025 406.889 431.1C407.101 431.176 407.33 431.194 407.552 431.155C407.774 431.115 407.983 431.018 408.156 430.874C408.329 430.729 408.462 430.542 408.541 430.33C408.62 430.119 408.643 429.89 408.607 429.668L408.585 429.711Z" fill="white"/>
<path d="M373.831 317.693C373.778 317.48 373.676 317.282 373.532 317.117C373.388 316.951 373.206 316.822 373.002 316.741C372.798 316.66 372.577 316.629 372.359 316.651C372.14 316.673 371.93 316.746 371.746 316.866L371.671 316.93C371.502 317.081 371.376 317.272 371.304 317.486C371.232 317.7 371.217 317.929 371.261 318.151C371.304 318.372 371.404 318.579 371.552 318.75C371.699 318.92 371.889 319.05 372.101 319.126C372.314 319.201 372.543 319.22 372.765 319.18C372.987 319.14 373.195 319.044 373.369 318.899C373.542 318.755 373.675 318.567 373.754 318.356C373.833 318.144 373.856 317.916 373.82 317.693H373.831Z" fill="white"/>
<path d="M402.119 372.305C402.067 372.092 401.965 371.894 401.82 371.729C401.676 371.563 401.495 371.434 401.291 371.353C401.086 371.272 400.866 371.242 400.648 371.263C400.429 371.285 400.219 371.358 400.035 371.478L399.96 371.532C399.791 371.681 399.665 371.872 399.592 372.086C399.52 372.3 399.504 372.528 399.547 372.75C399.59 372.971 399.689 373.177 399.836 373.349C399.982 373.52 400.171 373.65 400.383 373.726C400.595 373.803 400.824 373.823 401.046 373.784C401.268 373.746 401.476 373.65 401.65 373.507C401.824 373.363 401.958 373.177 402.038 372.967C402.118 372.756 402.143 372.528 402.108 372.305H402.119Z" fill="white"/>
<path d="M392.943 392.988C392.891 392.774 392.789 392.577 392.645 392.411C392.5 392.245 392.319 392.117 392.115 392.036C391.911 391.955 391.69 391.924 391.472 391.945C391.253 391.967 391.043 392.041 390.859 392.16L390.784 392.214C390.615 392.364 390.489 392.555 390.416 392.768C390.344 392.982 390.329 393.21 390.371 393.432C390.414 393.653 390.513 393.86 390.66 394.031C390.807 394.202 390.995 394.332 391.207 394.409C391.419 394.485 391.648 394.505 391.87 394.466C392.092 394.428 392.3 394.332 392.474 394.189C392.648 394.046 392.782 393.859 392.862 393.649C392.943 393.438 392.967 393.21 392.933 392.988H392.943Z" fill="white"/>
<path d="M423.104 409.598C423.052 409.384 422.949 409.187 422.805 409.021C422.661 408.856 422.479 408.727 422.275 408.646C422.071 408.565 421.851 408.534 421.632 408.556C421.414 408.577 421.204 408.651 421.02 408.77L420.944 408.835C420.776 408.985 420.65 409.177 420.578 409.391C420.506 409.605 420.491 409.834 420.534 410.055C420.578 410.277 420.678 410.483 420.825 410.654C420.973 410.825 421.162 410.955 421.375 411.03C421.588 411.106 421.816 411.124 422.039 411.085C422.261 411.045 422.469 410.948 422.642 410.804C422.816 410.659 422.948 410.472 423.027 410.26C423.107 410.049 423.129 409.82 423.093 409.598H423.104Z" fill="white"/>
<path d="M340.576 433.589C340.526 433.375 340.425 433.175 340.281 433.008C340.137 432.841 339.955 432.711 339.75 432.63C339.546 432.549 339.324 432.518 339.105 432.541C338.886 432.564 338.675 432.64 338.492 432.762L338.417 432.816C338.248 432.966 338.122 433.157 338.049 433.37C337.977 433.584 337.961 433.812 338.004 434.034C338.047 434.255 338.146 434.461 338.293 434.633C338.439 434.804 338.628 434.934 338.84 435.01C339.052 435.087 339.281 435.107 339.503 435.068C339.725 435.03 339.933 434.934 340.107 434.791C340.281 434.647 340.415 434.461 340.495 434.251C340.576 434.04 340.6 433.812 340.565 433.589H340.576Z" fill="white"/>
<path d="M271.817 427.304C271.765 427.091 271.663 426.893 271.519 426.727C271.375 426.562 271.193 426.433 270.989 426.352C270.785 426.271 270.564 426.24 270.346 426.262C270.127 426.283 269.917 426.357 269.733 426.477L269.658 426.541C269.484 426.691 269.354 426.884 269.278 427.1C269.203 427.317 269.185 427.549 269.228 427.775C269.27 428 269.371 428.21 269.52 428.384C269.669 428.559 269.861 428.691 270.077 428.767C270.293 428.844 270.526 428.863 270.751 428.821C270.977 428.78 271.188 428.681 271.363 428.533C271.538 428.385 271.671 428.193 271.749 427.978C271.826 427.762 271.847 427.53 271.807 427.304H271.817Z" fill="white"/>
<path d="M332.39 416.012C332.338 415.799 332.235 415.601 332.091 415.436C331.947 415.27 331.765 415.141 331.561 415.06C331.357 414.979 331.137 414.948 330.918 414.97C330.7 414.992 330.489 415.065 330.305 415.185L330.23 415.249C330.057 415.399 329.926 415.592 329.85 415.809C329.775 416.025 329.758 416.258 329.8 416.483C329.842 416.708 329.943 416.918 330.092 417.093C330.241 417.267 330.434 417.399 330.65 417.475C330.866 417.552 331.098 417.571 331.324 417.53C331.549 417.488 331.76 417.389 331.935 417.241C332.11 417.093 332.243 416.901 332.321 416.686C332.399 416.47 332.419 416.238 332.379 416.012H332.39Z" fill="white"/>
<path d="M274.372 403.731C274.322 403.517 274.221 403.317 274.077 403.15C273.933 402.983 273.751 402.854 273.546 402.772C273.342 402.691 273.12 402.66 272.901 402.683C272.682 402.706 272.471 402.782 272.288 402.904L272.223 402.958C272.055 403.108 271.928 403.299 271.856 403.512C271.784 403.726 271.768 403.954 271.811 404.176C271.853 404.397 271.953 404.603 272.099 404.775C272.246 404.946 272.435 405.076 272.647 405.152C272.859 405.229 273.087 405.249 273.309 405.21C273.531 405.172 273.74 405.076 273.914 404.933C274.088 404.789 274.221 404.603 274.302 404.393C274.382 404.182 274.406 403.954 274.372 403.731Z" fill="white"/>
<path d="M371.283 364.731C371.231 364.517 371.129 364.32 370.984 364.154C370.84 363.989 370.659 363.86 370.455 363.779C370.251 363.698 370.03 363.667 369.812 363.689C369.593 363.71 369.383 363.784 369.199 363.903L369.124 363.957C368.955 364.107 368.829 364.298 368.756 364.512C368.684 364.725 368.668 364.954 368.711 365.175C368.754 365.396 368.853 365.603 369 365.774C369.146 365.945 369.335 366.075 369.547 366.152C369.759 366.228 369.988 366.248 370.21 366.21C370.432 366.171 370.64 366.075 370.814 365.932C370.988 365.789 371.122 365.603 371.202 365.392C371.283 365.181 371.307 364.954 371.272 364.731H371.283Z" fill="white"/>
<path d="M351 305.541C350.948 305.328 350.845 305.13 350.701 304.965C350.557 304.799 350.375 304.671 350.171 304.59C349.967 304.509 349.747 304.478 349.528 304.499C349.31 304.521 349.1 304.595 348.916 304.714H348.84C348.672 304.864 348.545 305.055 348.473 305.268C348.401 305.482 348.385 305.711 348.428 305.932C348.471 306.153 348.57 306.36 348.717 306.531C348.863 306.702 349.052 306.832 349.264 306.909C349.476 306.985 349.704 307.005 349.926 306.967C350.149 306.928 350.357 306.832 350.531 306.689C350.705 306.546 350.839 306.36 350.919 306.149C350.999 305.938 351.024 305.711 350.989 305.488L351 305.541Z" fill="white"/>
<path d="M345.929 356.855C345.877 356.642 345.775 356.444 345.63 356.279C345.486 356.113 345.305 355.985 345.101 355.904C344.896 355.823 344.676 355.792 344.458 355.813C344.239 355.835 344.029 355.909 343.845 356.028L343.78 356.092C343.612 356.243 343.485 356.434 343.413 356.648C343.342 356.862 343.327 357.091 343.37 357.313C343.413 357.534 343.514 357.741 343.661 357.912C343.809 358.083 343.998 358.212 344.211 358.288C344.424 358.363 344.652 358.382 344.874 358.342C345.097 358.303 345.305 358.206 345.478 358.061C345.652 357.917 345.784 357.729 345.863 357.518C345.942 357.307 345.965 357.078 345.929 356.855Z" fill="white"/>
<path d="M337.679 340.127C337.627 339.914 337.524 339.716 337.38 339.55C337.236 339.385 337.054 339.256 336.85 339.175C336.646 339.094 336.426 339.063 336.207 339.085C335.989 339.106 335.779 339.18 335.594 339.3H335.53C335.361 339.449 335.235 339.64 335.162 339.854C335.09 340.067 335.075 340.296 335.117 340.517C335.16 340.739 335.26 340.945 335.406 341.116C335.553 341.288 335.741 341.418 335.953 341.494C336.166 341.57 336.394 341.59 336.616 341.552C336.838 341.513 337.046 341.418 337.22 341.274C337.394 341.131 337.528 340.945 337.608 340.734C337.689 340.524 337.713 340.296 337.679 340.073V340.127Z" fill="white"/>
<path d="M374.175 392.751C374.123 392.538 374.02 392.34 373.876 392.175C373.732 392.009 373.55 391.88 373.346 391.799C373.142 391.718 372.922 391.687 372.703 391.709C372.485 391.731 372.275 391.804 372.09 391.924L372.015 391.988C371.842 392.138 371.711 392.331 371.636 392.548C371.56 392.764 371.543 392.997 371.585 393.222C371.628 393.447 371.728 393.657 371.878 393.832C372.027 394.006 372.219 394.138 372.435 394.215C372.651 394.291 372.883 394.31 373.109 394.269C373.334 394.228 373.545 394.128 373.72 393.98C373.895 393.832 374.028 393.64 374.106 393.425C374.184 393.209 374.204 392.977 374.164 392.751H374.175Z" fill="white"/>
<path d="M348.444 382.426C348.398 382.209 348.3 382.006 348.158 381.835C348.016 381.664 347.834 381.531 347.629 381.446C347.423 381.361 347.2 381.328 346.979 381.349C346.758 381.37 346.545 381.445 346.359 381.567L346.284 381.631C346.116 381.782 345.989 381.973 345.917 382.187C345.845 382.401 345.83 382.63 345.874 382.852C345.917 383.073 346.018 383.279 346.165 383.45C346.313 383.621 346.502 383.751 346.715 383.826C346.927 383.902 347.156 383.921 347.378 383.881C347.601 383.841 347.809 383.744 347.982 383.6C348.155 383.455 348.288 383.268 348.367 383.057C348.446 382.845 348.469 382.617 348.433 382.394L348.444 382.426Z" fill="white"/>
<path d="M359.456 325.751C359.405 325.538 359.304 325.34 359.161 325.175C359.018 325.009 358.837 324.88 358.634 324.799C358.431 324.718 358.211 324.687 357.993 324.709C357.775 324.73 357.566 324.804 357.382 324.924L357.307 324.977C357.139 325.127 357.012 325.318 356.94 325.532C356.868 325.745 356.852 325.974 356.895 326.195C356.937 326.417 357.037 326.623 357.183 326.794C357.33 326.966 357.519 327.096 357.731 327.172C357.943 327.248 358.171 327.268 358.393 327.23C358.615 327.191 358.824 327.096 358.998 326.952C359.172 326.809 359.305 326.623 359.386 326.412C359.466 326.202 359.49 325.974 359.456 325.751Z" fill="white"/>
<path d="M320.294 365.88C320.242 365.667 320.14 365.469 319.996 365.304C319.852 365.138 319.67 365.01 319.466 364.929C319.262 364.848 319.041 364.817 318.823 364.838C318.604 364.86 318.394 364.934 318.21 365.053L318.146 365.118C317.977 365.268 317.851 365.459 317.779 365.673C317.707 365.887 317.692 366.116 317.735 366.338C317.779 366.559 317.879 366.766 318.026 366.937C318.174 367.108 318.363 367.237 318.576 367.313C318.789 367.388 319.018 367.407 319.24 367.367C319.462 367.328 319.67 367.231 319.843 367.086C320.017 366.942 320.15 366.754 320.229 366.543C320.308 366.332 320.33 366.103 320.294 365.88Z" fill="white"/>
<path d="M380.74 347.465C380.688 347.252 380.586 347.054 380.442 346.888C380.297 346.723 380.116 346.594 379.912 346.513C379.708 346.432 379.487 346.401 379.269 346.423C379.05 346.444 378.84 346.518 378.656 346.637L378.581 346.691C378.412 346.841 378.286 347.032 378.213 347.246C378.141 347.459 378.125 347.688 378.168 347.909C378.211 348.13 378.31 348.337 378.457 348.508C378.604 348.679 378.792 348.809 379.004 348.886C379.216 348.962 379.445 348.982 379.667 348.944C379.889 348.905 380.097 348.809 380.271 348.666C380.445 348.523 380.579 348.337 380.659 348.126C380.74 347.915 380.764 347.688 380.729 347.465H380.74Z" fill="white"/>
<path d="M436.811 299.374C436.759 299.161 436.656 298.964 436.512 298.798C436.368 298.632 436.186 298.504 435.982 298.423C435.778 298.342 435.558 298.311 435.339 298.332C435.121 298.354 434.911 298.428 434.727 298.547L434.651 298.612C434.483 298.762 434.357 298.953 434.285 299.167C434.213 299.381 434.198 299.61 434.241 299.832C434.285 300.053 434.385 300.26 434.532 300.431C434.68 300.602 434.869 300.731 435.082 300.807C435.295 300.882 435.523 300.901 435.746 300.862C435.968 300.822 436.176 300.725 436.349 300.58C436.523 300.436 436.655 300.249 436.734 300.037C436.814 299.826 436.836 299.597 436.8 299.374H436.811Z" fill="white"/>
<path d="M414.045 262.963C413.993 262.749 413.891 262.552 413.747 262.386C413.603 262.22 413.421 262.092 413.217 262.011C413.013 261.93 412.792 261.899 412.574 261.921C412.355 261.942 412.145 262.016 411.961 262.135L411.886 262.2C411.717 262.35 411.591 262.542 411.519 262.756C411.447 262.97 411.432 263.199 411.475 263.42C411.519 263.642 411.619 263.848 411.767 264.019C411.914 264.19 412.104 264.319 412.316 264.395C412.529 264.471 412.758 264.489 412.98 264.45C413.202 264.41 413.41 264.313 413.584 264.168C413.757 264.024 413.89 263.837 413.969 263.625C414.048 263.414 414.071 263.185 414.035 262.963H414.045Z" fill="white"/>
<path d="M369.932 267.529C369.879 267.316 369.777 267.118 369.633 266.952C369.489 266.787 369.307 266.658 369.103 266.577C368.899 266.496 368.678 266.465 368.46 266.487C368.242 266.508 368.031 266.582 367.847 266.702L367.772 266.755C367.604 266.905 367.477 267.096 367.405 267.31C367.332 267.523 367.317 267.752 367.359 267.973C367.402 268.194 367.502 268.401 367.648 268.572C367.795 268.743 367.984 268.874 368.196 268.95C368.408 269.026 368.636 269.046 368.858 269.008C369.08 268.969 369.289 268.874 369.463 268.73C369.636 268.587 369.77 268.401 369.851 268.19C369.931 267.98 369.955 267.752 369.921 267.529H369.932Z" fill="white"/>
<path d="M324.925 136.828C316.469 142.2 313.107 153.492 314.697 160.164C315.513 163.527 317.039 166.911 316.373 170.295C315.803 173.228 313.687 175.581 312.075 178.117C309.42 182.385 308.2 187.391 308.594 192.403C308.988 197.414 310.975 202.168 314.265 205.969C317.554 209.77 321.974 212.419 326.877 213.528C331.779 214.637 336.909 214.148 341.514 212.133" fill="#263238"/>
<path d="M319.918 180.867C299.332 135.592 348.303 112.847 375.013 120.389C400.122 127.48 410.834 139.975 414.97 156.768C419.107 173.561 418.903 191.773 412.317 207.77C409.093 215.657 403.227 223.672 394.75 224.66" fill="#263238"/>
<path d="M344.038 291.434C343.684 269.796 343.426 240.089 343.426 240.207C343.426 240.325 324.871 237.123 320.971 212.885C319.058 200.819 319.671 181.039 320.681 164.869C321.605 150.311 331.242 132.455 345.747 133.991L391.033 145.433C393.159 145.657 395.123 146.671 396.536 148.275C397.95 149.879 398.708 151.956 398.661 154.093L395.717 247.749" fill="#FFBE9D"/>
<path d="M328.782 179.664C328.764 180.469 329.062 181.249 329.613 181.838C330.163 182.426 330.921 182.776 331.726 182.812C332.119 182.849 332.516 182.806 332.893 182.687C333.269 182.568 333.618 182.374 333.919 182.118C334.219 181.861 334.465 181.547 334.642 181.194C334.819 180.841 334.923 180.456 334.949 180.061C334.964 179.256 334.665 178.476 334.116 177.887C333.567 177.297 332.81 176.944 332.005 176.903C331.611 176.867 331.214 176.911 330.838 177.032C330.461 177.152 330.112 177.347 329.812 177.604C329.512 177.862 329.266 178.176 329.089 178.53C328.912 178.884 328.808 179.269 328.782 179.664Z" fill="#263238"/>
<path d="M360.928 179.664C360.913 180.468 361.213 181.245 361.763 181.831C362.313 182.417 363.069 182.765 363.872 182.801C364.265 182.838 364.662 182.796 365.039 182.676C365.415 182.557 365.764 182.364 366.065 182.107C366.365 181.851 366.611 181.537 366.788 181.183C366.965 180.83 367.07 180.445 367.095 180.051C367.113 179.246 366.815 178.465 366.265 177.877C365.715 177.289 364.956 176.939 364.151 176.903C363.757 176.866 363.36 176.909 362.982 177.029C362.605 177.149 362.256 177.343 361.955 177.601C361.654 177.858 361.409 178.174 361.232 178.528C361.056 178.883 360.952 179.269 360.928 179.664Z" fill="#263238"/>
<path d="M325.427 174.013C325.803 174.432 328.221 172.766 331.562 172.938C334.903 173.11 337.299 174.808 337.686 174.41C337.869 174.238 337.493 173.497 336.451 172.68C335.039 171.625 333.334 171.036 331.573 170.993C329.832 170.932 328.116 171.425 326.673 172.401C325.62 173.132 325.244 173.819 325.427 174.013Z" fill="#263238"/>
<path d="M357.21 174.808C357.596 175.216 359.949 173.454 363.291 173.454C366.632 173.454 369.103 175.108 369.458 174.7C369.64 174.518 369.243 173.787 368.169 173.013C366.717 172.011 364.99 171.485 363.226 171.509C361.486 171.509 359.792 172.066 358.391 173.099C357.36 173.894 357.016 174.625 357.21 174.808Z" fill="#263238"/>
<path d="M345.734 200.593C345.734 200.4 343.671 200.046 340.298 199.605C339.438 199.519 338.633 199.347 338.493 198.767C338.416 197.883 338.615 196.998 339.062 196.231C339.857 194.169 340.706 191.998 341.587 189.721C345.1 180.459 347.636 172.831 347.26 172.691C346.884 172.551 343.736 179.954 340.233 189.226L337.805 195.78C337.267 196.81 337.111 197.998 337.365 199.132C337.49 199.433 337.681 199.702 337.925 199.918C338.169 200.133 338.458 200.291 338.772 200.379C339.244 200.512 339.732 200.58 340.223 200.583C343.618 200.765 345.724 200.776 345.734 200.593Z" fill="#263238"/>
<path d="M343.428 240.207C354.85 240.382 366.097 237.384 375.918 231.547C375.918 231.547 367.709 248.416 343.428 246.149V240.207Z" fill="#EB996E"/>
<path d="M356.383 170.048C356.705 170.961 360.057 170.521 363.979 171.004C367.9 171.488 371.081 172.541 371.607 171.724C371.843 171.337 371.285 170.478 370.006 169.575C368.296 168.496 366.362 167.82 364.352 167.599C362.341 167.377 360.307 167.616 358.403 168.297C356.963 168.898 356.232 169.618 356.383 170.048Z" fill="#263238"/>
<path d="M326.2 165.611C326.791 166.374 329.101 165.611 331.873 165.546C334.645 165.482 336.998 166.062 337.535 165.267C337.772 164.88 337.406 164.117 336.375 163.398C335.005 162.513 333.394 162.078 331.766 162.151C330.137 162.183 328.558 162.716 327.243 163.677C326.265 164.44 325.943 165.224 326.2 165.611Z" fill="#263238"/>
<path d="M394.502 186.024C394.856 185.853 407.491 180.266 407.642 194.792C407.792 209.318 393.17 206.47 393.137 206.051C393.105 205.632 394.502 186.024 394.502 186.024Z" fill="#FFBE9D"/>
<path d="M397.522 200.486C397.587 200.486 397.78 200.658 398.21 200.851C398.817 201.093 399.494 201.093 400.101 200.851C401.626 200.271 402.894 197.821 402.937 195.2C402.97 193.956 402.716 192.721 402.196 191.59C402.057 191.137 401.809 190.724 401.474 190.389C401.138 190.054 400.726 189.806 400.273 189.667C399.982 189.592 399.673 189.622 399.402 189.751C399.131 189.881 398.914 190.102 398.79 190.376C398.597 190.784 398.693 191.074 398.618 191.096C398.543 191.117 398.296 190.859 398.414 190.258C398.49 189.898 398.687 189.576 398.973 189.344C399.169 189.191 399.393 189.078 399.633 189.012C399.872 188.945 400.123 188.927 400.369 188.958C400.967 189.07 401.525 189.333 401.991 189.722C402.458 190.112 402.817 190.614 403.034 191.182C403.667 192.433 403.984 193.82 403.958 195.221C403.893 198.144 402.422 200.905 400.326 201.528C399.938 201.645 399.527 201.674 399.126 201.613C398.725 201.552 398.342 201.402 398.006 201.174C397.554 200.841 397.479 200.507 397.522 200.486Z" fill="#EB996E"/>
<path d="M340.91 126.803C332.831 130.983 329.5 147.507 332.842 155.973C336.183 164.44 345.197 168.565 354.083 170.51C362.968 172.455 371.682 172.659 380.449 170.252C381.05 176.14 384.585 182.189 390.301 183.747C397.876 185.799 405.504 178.869 407.191 171.208C408.877 163.548 406.342 155.662 403.849 148.216" fill="#263238"/>
<path d="M405 179.503C405 179.503 404.635 179.933 403.872 180.577C402.806 181.48 401.69 182.323 400.531 183.102C398.797 184.298 396.892 185.222 394.879 185.842C392.366 186.634 389.664 186.593 387.176 185.724C384.726 184.737 382.674 182.964 381.342 180.685C380.262 178.864 379.551 176.849 379.247 174.754C379.034 173.361 378.959 171.95 379.021 170.542C378.998 170.027 379.059 169.512 379.204 169.017C379.365 169.017 379.204 171.219 379.827 174.647C380.195 176.638 380.923 178.546 381.976 180.276C383.252 182.377 385.169 184.011 387.444 184.939C389.772 185.744 392.294 185.796 394.654 185.09C396.605 184.525 398.468 183.69 400.187 182.608C403.174 180.738 404.914 179.385 405 179.503Z" fill="#263238"/>
<path d="M346.725 209.919C347.152 211.179 347.76 212.369 348.53 213.454C348.916 213.997 349.414 214.452 349.99 214.787C350.567 215.123 351.208 215.331 351.871 215.399C352.58 215.394 353.277 215.214 353.899 214.875C354.521 214.535 355.05 214.047 355.438 213.454C356.187 212.238 356.533 210.817 356.427 209.393C356.373 208.114 355.782 206.589 354.514 206.438C353.981 206.419 353.452 206.538 352.978 206.782L346.295 209.49" fill="#EB996E"/>
<path d="M349.388 215.41C349.388 215.206 350.892 215.796 352.955 214.969C354.124 214.518 355.085 213.649 355.652 212.53C355.972 211.848 356.145 211.106 356.16 210.353C356.175 209.6 356.031 208.852 355.738 208.157C355.583 207.803 355.388 207.468 355.157 207.158C354.889 206.879 354.932 206.89 354.652 206.933C354.373 206.976 353.933 207.212 353.578 207.352L352.504 207.803C351.075 208.383 349.775 208.877 348.69 209.296C346.541 210.113 345.112 210.543 345.047 210.371C344.983 210.199 346.251 209.511 348.356 208.501C349.431 207.996 350.666 207.427 352.074 206.771L353.148 206.288C353.546 206.127 353.836 205.955 354.373 205.783C354.694 205.676 355.041 205.676 355.362 205.783C355.655 205.908 355.911 206.108 356.103 206.363C356.82 207.295 357.253 208.414 357.35 209.586C357.448 210.758 357.205 211.933 356.651 212.971C356.294 213.629 355.811 214.211 355.228 214.681C354.645 215.151 353.975 215.501 353.256 215.711C352.322 216.017 351.321 216.058 350.366 215.829C349.678 215.711 349.366 215.485 349.388 215.41Z" fill="#263238"/>
<path d="M410.822 176.065C409.339 175.957 397.338 177.515 398.283 199.809C399.164 220.642 413.776 216.054 418.439 208.211C422.823 200.787 425.38 177.085 410.822 176.065Z" fill="#455A64"/>
<path d="M418.205 178.697C418.171 178.505 418.153 178.311 418.151 178.117C418.151 177.676 418.151 177.118 418.086 176.408C418.086 174.872 417.979 172.723 417.904 170.059C417.796 164.59 417.646 156.972 417.463 148.195L417.732 148.452H411.554L411.833 148.173C411.833 149.828 411.919 151.579 411.973 153.362C412.177 161.721 412.371 169.479 412.532 176.043V176.237H412.349C409.813 176.821 407.559 178.273 405.978 180.341C404.78 181.944 403.915 183.771 403.432 185.713C403.109 186.964 402.89 188.24 402.776 189.527C402.776 189.967 402.722 190.311 402.712 190.537C402.701 190.763 402.712 190.891 402.712 190.891C402.698 190.774 402.698 190.655 402.712 190.537C402.712 190.311 402.712 189.967 402.712 189.516C402.764 188.212 402.944 186.917 403.249 185.648C403.697 183.649 404.549 181.763 405.752 180.104C407.374 177.952 409.695 176.432 412.317 175.807L412.134 176.043C411.952 169.521 411.726 161.732 411.49 153.362C411.436 151.59 411.393 149.838 411.35 148.173V147.883H418.086V148.152C418.183 156.94 418.269 164.547 418.334 170.026C418.334 172.691 418.334 174.84 418.334 176.376C418.334 177.085 418.334 177.644 418.334 178.074C418.32 178.286 418.276 178.496 418.205 178.697Z" fill="#455A64"/>
<path d="M410.821 148.184C410.821 148.184 404.547 133.508 389.602 126.255C383.886 123.408 377.882 121.183 371.691 119.616C371.691 119.616 380.416 117.553 394.523 123.827C400.969 126.685 407.415 130.392 411.713 135.968C414.421 139.503 417.816 146.411 417.805 148.184H410.821Z" fill="#455A64"/>
<path d="M372.145 325.966C372.145 325.966 372.23 325.858 372.413 325.676C372.596 325.493 372.875 325.214 373.219 324.838C374.25 323.747 375.218 322.599 376.12 321.4C377.554 319.48 378.864 317.47 380.041 315.383C381.438 312.944 382.899 310.065 384.479 306.852C387.648 300.406 391.312 292.648 395.115 283.731C397.006 279.272 398.94 274.534 400.874 269.538L402.314 265.756C402.768 264.432 403.347 263.155 404.044 261.942C404.787 260.684 405.866 259.657 407.159 258.977C407.818 258.615 408.557 258.426 409.308 258.429C409.718 258.457 410.113 258.598 410.447 258.837C410.764 259.094 411.012 259.426 411.167 259.804V259.879V259.965C411.076 260.477 410.878 260.963 410.587 261.394C410.262 261.842 409.784 262.156 409.244 262.275C408.212 262.418 407.161 262.226 406.246 261.727C405.286 261.279 404.503 260.523 404.022 259.579C403.541 258.634 403.39 257.556 403.592 256.516C403.812 255.447 404.44 254.506 405.344 253.895C406.235 253.273 407.309 252.966 408.395 253.024C408.957 253.028 409.509 253.173 410.001 253.445C410.493 253.717 410.908 254.108 411.21 254.582C411.362 254.854 411.432 255.163 411.413 255.474C411.394 255.784 411.286 256.083 411.103 256.334C410.748 256.783 410.276 257.125 409.738 257.322C408.837 257.664 407.85 257.707 406.923 257.444C405.996 257.181 405.178 256.625 404.592 255.861C404.021 255.081 403.77 254.112 403.893 253.153C403.987 252.219 404.362 251.335 404.968 250.618C405.583 249.893 406.443 249.419 407.385 249.285C407.86 249.223 408.344 249.273 408.797 249.429C409.25 249.586 409.66 249.846 409.996 250.188C410.339 250.558 410.524 251.048 410.512 251.552C410.506 251.804 410.447 252.051 410.34 252.279C410.232 252.507 410.079 252.709 409.888 252.874C409.538 253.189 409.118 253.418 408.662 253.541C408.207 253.664 407.729 253.679 407.267 253.583C406.82 253.466 406.402 253.256 406.041 252.968C405.68 252.679 405.384 252.318 405.172 251.907C404.755 251.137 404.489 250.295 404.387 249.425C404.085 247.736 404.282 245.996 404.957 244.418C405.333 243.614 405.985 242.97 406.794 242.603C407.621 242.296 408.536 242.327 409.34 242.689C409.762 242.841 410.133 243.107 410.412 243.458C410.691 243.809 410.867 244.231 410.92 244.676C410.941 245.131 410.822 245.582 410.577 245.966C410.333 246.351 409.976 246.651 409.555 246.825C409.173 247.021 408.75 247.123 408.32 247.123C407.89 247.123 407.467 247.021 407.084 246.825C406.357 246.405 405.81 245.732 405.548 244.934C405.305 244.178 405.257 243.372 405.408 242.592C405.492 241.831 405.658 241.082 405.902 240.357C406.145 239.612 406.596 238.952 407.202 238.455C407.798 237.978 408.491 237.636 409.233 237.456C409.619 237.346 410.029 237.346 410.415 237.456C410.785 237.585 411.12 237.798 411.393 238.079C411.666 238.348 411.882 238.67 412.027 239.025C412.182 239.407 412.182 239.835 412.027 240.217C411.853 240.571 411.577 240.863 411.233 241.055C410.889 241.247 410.495 241.33 410.103 241.292C409.376 241.281 408.67 241.045 408.083 240.615C406.97 239.794 406.204 238.587 405.935 237.231C405.654 235.891 405.863 234.496 406.526 233.298C406.816 232.724 407.231 232.221 407.74 231.826C408.241 231.446 408.827 231.191 409.448 231.085C410.068 230.959 410.713 231.05 411.274 231.343C411.552 231.493 411.788 231.711 411.96 231.975C412.133 232.24 412.237 232.543 412.263 232.858C412.26 233.451 412.059 234.026 411.694 234.492C411.328 234.959 410.818 235.291 410.243 235.436C409.704 235.551 409.144 235.511 408.627 235.321C408.11 235.131 407.657 234.798 407.321 234.362C406.675 233.585 406.298 232.62 406.246 231.611C406.339 229.855 406.702 228.123 407.321 226.476C407.761 224.929 408.159 223.51 408.524 222.243C409.244 219.718 409.803 217.752 410.2 216.398C410.383 215.742 410.533 215.237 410.641 214.883C410.748 214.528 410.812 214.367 410.812 214.367C410.812 214.367 410.812 214.55 410.694 214.894C410.576 215.237 410.469 215.775 410.307 216.43C409.942 217.795 409.405 219.771 408.728 222.296L407.578 226.54C407.213 228.098 406.504 229.763 406.579 231.59C406.657 232.535 407.033 233.43 407.654 234.147C407.951 234.532 408.349 234.827 408.805 234.998C409.261 235.169 409.755 235.209 410.232 235.114C410.715 234.99 411.144 234.714 411.458 234.327C411.771 233.94 411.952 233.463 411.973 232.965C411.951 232.713 411.866 232.47 411.728 232.258C411.589 232.047 411.4 231.872 411.178 231.751C410.692 231.511 410.14 231.439 409.609 231.547C409.046 231.643 408.515 231.876 408.062 232.224C407.612 232.589 407.245 233.047 406.988 233.567C406.455 234.669 406.315 235.92 406.59 237.112C406.848 238.359 407.56 239.466 408.588 240.217C409.103 240.587 409.717 240.793 410.35 240.808C410.648 240.844 410.949 240.788 411.214 240.648C411.479 240.508 411.695 240.29 411.833 240.024C411.899 239.726 411.881 239.415 411.781 239.127C411.68 238.838 411.501 238.583 411.264 238.391C411.042 238.167 410.775 237.995 410.479 237.886C410.173 237.806 409.851 237.806 409.545 237.886C408.868 238.033 408.24 238.35 407.719 238.806C407.198 239.263 406.802 239.845 406.569 240.497C406.334 241.193 406.179 241.914 406.107 242.646C405.961 243.361 406.006 244.102 406.235 244.794C406.449 245.471 406.909 246.042 407.525 246.395C407.837 246.551 408.181 246.632 408.529 246.632C408.878 246.632 409.222 246.551 409.534 246.395C409.855 246.27 410.13 246.05 410.322 245.763C410.514 245.477 410.614 245.139 410.608 244.794C410.561 244.447 410.418 244.12 410.196 243.849C409.974 243.578 409.682 243.373 409.351 243.258C408.671 242.961 407.902 242.934 407.202 243.183C406.516 243.503 405.965 244.054 405.645 244.741C405.028 246.225 404.853 247.855 405.14 249.436C405.234 250.237 405.478 251.013 405.859 251.724C406.035 252.066 406.279 252.367 406.577 252.61C406.874 252.852 407.219 253.03 407.589 253.132C407.967 253.213 408.358 253.204 408.732 253.105C409.105 253.006 409.45 252.82 409.738 252.562C409.873 252.443 409.982 252.298 410.059 252.135C410.136 251.973 410.179 251.797 410.186 251.617C410.193 251.437 410.164 251.258 410.1 251.09C410.036 250.922 409.938 250.769 409.813 250.639C409.534 250.363 409.195 250.154 408.823 250.029C408.45 249.905 408.054 249.867 407.664 249.919C406.857 250.038 406.122 250.451 405.602 251.08C405.038 251.685 404.694 252.461 404.624 253.285C404.553 254.109 404.762 254.933 405.215 255.624C405.731 256.286 406.445 256.766 407.253 256.994C408.06 257.222 408.92 257.186 409.706 256.892C410.127 256.719 410.496 256.442 410.78 256.086C410.901 255.92 410.971 255.721 410.983 255.516C410.994 255.31 410.946 255.105 410.845 254.926C410.586 254.539 410.236 254.222 409.826 254.002C409.415 253.783 408.957 253.669 408.492 253.669C407.542 253.595 406.597 253.86 405.824 254.416C405.051 254.973 404.5 255.785 404.269 256.71C404.094 257.607 404.221 258.537 404.629 259.355C405.037 260.173 405.704 260.833 406.526 261.233C407.324 261.686 408.248 261.867 409.158 261.749C409.568 261.621 409.93 261.374 410.198 261.039C410.466 260.704 410.628 260.296 410.662 259.868V260.029C410.558 259.733 410.369 259.473 410.119 259.282C409.869 259.091 409.568 258.977 409.255 258.955C408.589 258.952 407.933 259.122 407.353 259.449C406.142 260.083 405.133 261.043 404.441 262.221C403.76 263.399 403.195 264.641 402.754 265.928L401.293 269.721C399.359 274.706 397.404 279.39 395.491 283.903C391.667 292.82 387.971 300.599 384.747 307.003C383.146 310.226 381.664 313.073 380.235 315.512C379.031 317.592 377.692 319.591 376.227 321.496C375.03 323.128 373.662 324.627 372.145 325.966Z" fill="white"/>
<path d="M423.812 165.611C423.681 164.245 423.352 162.906 422.834 161.635C421.273 158.218 418.535 155.476 415.12 153.91C412.775 152.851 410.255 152.236 407.685 152.095C404.729 151.943 401.765 152.166 398.864 152.761C392.708 153.9 386.24 156.553 378.999 157.649C375.469 158.117 371.892 158.117 368.362 157.649C365.085 157.156 361.876 156.283 358.8 155.049C353.577 152.946 348.828 149.819 344.833 145.852C342.143 143.2 339.868 140.157 338.085 136.827C337.784 136.32 337.518 135.792 337.29 135.248L336.774 134.055C336.646 133.765 336.549 133.518 336.463 133.325C336.422 133.243 336.393 133.157 336.377 133.067C336.433 133.139 336.48 133.219 336.517 133.303L336.871 134.012L337.441 135.173C337.686 135.71 337.966 136.23 338.279 136.731C340.122 139.99 342.423 142.968 345.112 145.573C351.455 151.785 359.608 155.822 368.394 157.101C371.874 157.564 375.4 157.564 378.88 157.101C386.025 156.027 392.504 153.384 398.736 152.267C401.677 151.679 404.681 151.469 407.675 151.643C410.298 151.802 412.868 152.455 415.249 153.567C418.722 155.194 421.478 158.038 422.996 161.56C423.373 162.519 423.622 163.523 423.737 164.547V165.342C423.776 165.427 423.801 165.518 423.812 165.611Z" fill="#455A64"/>
<path d="M407.6 142.457C407.346 142.52 407.087 142.563 406.827 142.586C406.322 142.662 405.57 142.769 404.613 142.941C402.701 143.252 399.961 143.865 396.588 144.703C392.641 145.767 388.623 146.546 384.565 147.034C379.578 147.545 374.547 147.433 369.588 146.701C364.627 145.982 359.769 144.676 355.115 142.812C351.301 141.302 347.647 139.412 344.21 137.171C342.77 136.194 341.481 135.291 340.385 134.432C339.289 133.572 338.365 132.831 337.656 132.165L336.023 130.628C335.658 130.274 335.465 130.08 335.486 130.059C335.705 130.201 335.91 130.362 336.098 130.542L337.796 131.993C338.527 132.637 339.504 133.325 340.579 134.141C341.653 134.958 342.985 135.85 344.425 136.795C352.084 141.627 360.67 144.8 369.631 146.11C374.551 146.831 379.54 146.953 384.49 146.476C388.524 146.037 392.523 145.319 396.459 144.327C399.843 143.543 402.615 142.984 404.549 142.726C405.516 142.597 406.268 142.522 406.784 142.49C407.054 142.451 407.328 142.44 407.6 142.457Z" fill="#455A64"/>
<path d="M409.189 214.443C409.045 214.415 408.904 214.372 408.77 214.314C408.395 214.156 408.036 213.966 407.695 213.744C406.396 212.891 405.318 211.742 404.547 210.392C403.445 208.373 402.786 206.143 402.613 203.849C402.366 201.075 402.366 198.285 402.613 195.512C402.846 192.739 403.306 189.99 403.989 187.292C404.477 185.064 405.284 182.919 406.384 180.921C407.177 179.566 408.282 178.421 409.608 177.58C409.946 177.357 410.306 177.17 410.682 177.021C410.951 176.924 411.101 176.881 411.101 176.903C411.101 176.924 410.553 177.15 409.683 177.762C408.469 178.651 407.464 179.796 406.739 181.115C405.705 183.103 404.953 185.226 404.504 187.421C403.852 190.098 403.407 192.821 403.172 195.565C402.947 198.304 402.947 201.057 403.172 203.795C403.309 206.043 403.909 208.237 404.934 210.242C405.643 211.571 406.642 212.724 407.856 213.615C408.673 214.185 409.221 214.389 409.189 214.443Z" fill="#263238"/>
<path d="M360.869 211.123L349.841 213.287C348.181 213.613 347.1 215.222 347.425 216.881L347.506 217.292C347.832 218.952 349.441 220.033 351.1 219.708L362.128 217.544C363.788 217.218 364.869 215.609 364.544 213.95L364.463 213.539C364.137 211.879 362.528 210.798 360.869 211.123Z" fill="#455A64"/>
<path d="M362.98 212.756L413.961 196.769C414.567 196.579 415.222 196.637 415.786 196.928C416.349 197.22 416.775 197.723 416.969 198.326C417.068 198.637 417.103 198.964 417.071 199.288C417.04 199.612 416.944 199.926 416.789 200.212C416.633 200.498 416.422 200.75 416.166 200.952C415.911 201.154 415.618 201.302 415.304 201.388L363.174 215.463L362.98 212.756Z" fill="#455A64"/>
<path d="M400.66 205.729C401.206 205.488 401.77 205.291 402.347 205.138L407.01 203.72C408.965 203.118 411.372 202.474 413.907 201.646C414.534 201.413 415.102 201.046 415.573 200.572C416.037 200.099 416.296 199.462 416.292 198.799C416.29 198.474 416.185 198.157 415.992 197.895C415.799 197.632 415.528 197.437 415.218 197.338C414.51 197.158 413.765 197.18 413.069 197.402L397.78 202.323L393.128 203.763C392.595 203.983 392.046 204.159 391.484 204.289C392.022 204.028 392.578 203.809 393.15 203.634L397.748 202.022C401.648 200.701 406.999 198.864 413.016 196.94C413.816 196.709 414.665 196.709 415.465 196.94C415.874 197.088 416.228 197.356 416.481 197.709C416.734 198.062 416.874 198.483 416.883 198.917C416.884 199.722 416.568 200.494 416.002 201.066C415.437 201.563 414.769 201.929 414.047 202.141C411.415 202.968 409.062 203.548 407.074 204.107L402.411 205.364C401.84 205.54 401.254 205.662 400.66 205.729Z" fill="#263238"/>
<path d="M317.349 166.685C319.09 172.809 312.869 178.063 310.677 184.047C308.528 189.828 310.355 196.306 312.966 201.893C315.576 207.48 319.015 212.766 320.347 218.772C323.645 233.599 310.237 249.576 312.826 264.542C313.75 270 315.952 275.694 317.854 280.884C319.692 285.777 319.692 291.171 317.854 296.065C314.953 304.66 310.033 308.689 306.573 317.048C304.8 321.346 304.94 326.116 305.026 330.736C305.112 335.356 305.09 340.191 303.027 344.338C300.965 348.485 296.259 351.687 291.789 350.484C294.201 353.186 297.437 355.018 300.995 355.696C304.553 356.374 308.236 355.86 311.472 354.234C317.349 351.096 320.637 344.736 323.452 338.698C337.075 309.463 344.285 306.992 343.866 274.738C343.866 272.665 343.457 240.357 343.457 240.357C340.634 239.599 337.927 238.461 335.41 236.973C320.196 226.465 319.638 207.749 319.756 193.234" fill="#263238"/>
<path d="M347.755 264.542V276.715C347.755 276.715 338.397 324.472 335.582 351C332.767 377.527 332.305 384.532 332.305 384.532C332.305 384.532 339.02 395.007 353.062 377.215C367.105 359.423 369.608 356.619 375.227 356.307C375.227 356.307 368.362 281.711 368.673 278.95C369.021 276.992 369.881 275.16 371.166 273.642L347.755 264.542Z" fill="#FFBE9D"/>
<path d="M366.171 237.08C366.171 237.08 350.882 257.365 349.636 260.159C348.39 262.952 347.756 264.521 347.756 264.521L371.167 273.578L393.955 248.609L402.379 226.444L399.875 200.228C399.875 200.228 394.89 199.917 393.955 204.289C393.382 207.058 393.169 209.889 393.321 212.713L386.338 207.094L375.067 203.666C375.067 203.666 372.414 208.028 376.786 210.22C381.159 212.412 382.405 212.369 382.405 212.369L386.338 219.234L384.619 226.927L376.647 219.406C375.875 218.677 374.872 218.242 373.812 218.175C372.752 218.108 371.702 218.415 370.845 219.041L365.688 222.78L360.864 220.631L351.506 229.001L347.756 232.428C347.756 232.428 350.259 237.113 355.277 234.932L360.273 232.783L366.171 237.08Z" fill="#FFBE9D"/>
<path d="M347.756 268.657C347.742 268.439 347.742 268.22 347.756 268.002C347.756 267.572 347.81 266.928 347.906 266.1C348.032 265.067 348.229 264.044 348.497 263.038C348.831 261.65 349.383 260.323 350.13 259.106C353.633 253.734 359.145 246.213 366.021 236.962V237.242L360.09 232.88H360.294L357.211 234.244C356.152 234.76 355.052 235.188 353.923 235.523C352.694 235.817 351.401 235.669 350.27 235.104C349.12 234.512 348.165 233.602 347.52 232.482L347.434 232.332L347.573 232.203C351.592 228.421 356.072 224.607 360.67 220.524L360.81 220.406L360.96 220.492L365.118 222.952H364.85L369.706 219.729C370.555 219.181 371.318 218.654 372.231 218.096C372.728 217.849 373.284 217.743 373.837 217.79C374.39 217.838 374.92 218.036 375.368 218.364L384.834 226.369L384.393 226.519C384.909 224.209 385.468 221.706 386.026 219.181V219.374L382.094 212.509L382.341 212.648C381.673 212.557 381.019 212.38 380.396 212.122C379.784 211.896 379.172 211.639 378.559 211.37C377.947 211.101 377.345 210.8 376.743 210.51C376.432 210.36 376.131 210.156 375.83 209.984C375.536 209.774 375.263 209.537 375.014 209.275C374.653 208.892 374.372 208.441 374.187 207.949C374.003 207.456 373.918 206.932 373.939 206.406C373.974 205.379 374.258 204.376 374.767 203.484L374.874 203.301L375.089 203.366L386.349 206.804H386.402L393.386 212.423L392.945 212.659C392.795 209.877 392.993 207.087 393.536 204.354C393.651 203.649 393.913 202.977 394.305 202.381C394.698 201.784 395.212 201.278 395.814 200.894C397.015 200.185 398.396 199.839 399.789 199.895H400.08V200.132C400.961 209.447 401.788 218.235 402.551 226.347V226.401C399.435 234.566 396.598 241.98 394.084 248.544L376.443 268.013L371.651 273.202C371.103 273.771 370.684 274.223 370.394 274.534L369.953 274.975C369.953 274.975 370.082 274.803 370.351 274.491L371.565 273.127L376.292 267.873L393.848 248.534V248.587L402.228 226.412V226.519C401.444 218.407 400.606 209.629 399.703 200.304L399.951 200.551C398.669 200.498 397.4 200.819 396.298 201.475C395.756 201.819 395.295 202.275 394.945 202.812C394.594 203.35 394.363 203.956 394.267 204.59C393.728 207.273 393.533 210.013 393.687 212.745V213.368L393.203 212.982L386.112 207.33H386.209L374.949 203.903L375.261 203.774C374.808 204.584 374.554 205.49 374.519 206.417C374.5 206.871 374.572 207.325 374.73 207.751C374.889 208.178 375.131 208.568 375.443 208.899C375.666 209.126 375.907 209.334 376.163 209.522C376.453 209.683 376.711 209.855 377.012 210.005C377.614 210.296 378.205 210.596 378.806 210.854C379.938 211.406 381.132 211.821 382.363 212.09H382.534L382.599 212.197L386.531 219.063L386.585 219.159V219.267C386.016 221.792 385.511 224.295 384.941 226.605L384.844 227.056L384.49 226.755L375.057 218.773C374.69 218.5 374.256 218.333 373.801 218.291C373.346 218.25 372.888 218.334 372.478 218.536C371.683 219.009 370.823 219.611 370.007 220.137L365.14 223.36L365.011 223.446L364.871 223.371L360.713 220.9H361.014C356.416 224.961 351.925 228.775 347.896 232.536L347.949 232.256C348.543 233.293 349.423 234.136 350.485 234.685C351.52 235.211 352.709 235.348 353.837 235.071C354.943 234.747 356.021 234.334 357.06 233.836L360.144 232.482H360.262L360.359 232.547L366.279 236.93L366.44 237.048L366.322 237.209C359.413 246.46 353.848 253.916 350.302 259.235C349.556 260.429 348.994 261.73 348.637 263.092C348.363 264.088 348.151 265.1 348.003 266.122C347.885 266.949 347.831 267.594 347.799 268.013C347.767 268.432 347.756 268.657 347.756 268.657Z" fill="#EB996E"/>
<path d="M376.723 241.775C376.615 241.775 377.023 240.121 377.195 237.478C377.309 235.937 377.058 234.391 376.465 232.965C375.568 231.295 374.291 229.859 372.737 228.775C369.96 226.647 367.065 224.677 364.066 222.876L361.326 221.265C360.974 221.091 360.643 220.878 360.338 220.631C360.716 220.723 361.078 220.871 361.412 221.071C362.1 221.383 363.078 221.877 364.259 222.533C367.334 224.248 370.279 226.187 373.07 228.334C374.695 229.468 376.016 230.985 376.916 232.75C377.533 234.252 377.762 235.885 377.582 237.499C377.49 238.564 377.314 239.621 377.056 240.658C376.997 241.044 376.885 241.42 376.723 241.775Z" fill="#EB996E"/>
<path d="M393.106 232.042C393.175 231.095 393.308 230.155 393.504 229.227C393.839 226.986 394.001 224.723 393.987 222.458C393.959 220.186 393.757 217.92 393.386 215.678C393.179 214.758 393.032 213.825 392.945 212.885C393.34 213.75 393.618 214.664 393.773 215.603C394.764 220.111 394.804 224.777 393.891 229.302C393.752 230.246 393.488 231.167 393.106 232.042Z" fill="#EB996E"/>
<path d="M288.773 152.428L277.6 132.691C284.519 121.452 286.985 108.03 284.512 95.0654C282.039 82.1003 274.806 70.529 264.234 62.626C253.663 54.723 240.518 51.0597 227.383 52.3563C214.248 53.6528 202.073 59.8154 193.251 69.6328C184.429 79.4501 179.597 92.2122 179.707 105.411C179.816 118.609 184.858 131.289 193.842 140.959C202.826 150.629 215.102 156.588 228.256 157.667C241.411 158.745 254.493 154.865 264.932 146.787L288.773 152.428Z" fill="white"/>
<path d="M288.773 152.428L264.857 146.948H264.652L264.781 146.777L264.975 146.97C261.624 149.571 257.978 151.767 254.113 153.513C249.51 155.572 244.637 156.962 239.64 157.639C236.872 158.025 234.075 158.165 231.281 158.058C229.852 157.983 228.38 157.94 226.909 157.821L222.45 157.145C209.161 154.514 197.376 146.914 189.498 135.893C185.1 129.804 182.059 122.843 180.58 115.479C179.054 107.704 179.267 99.6869 181.203 92.0033C183.195 83.9722 187.073 76.532 192.517 70.3003L194.666 67.9259C195.375 67.1308 196.223 66.4754 196.986 65.7771C197.748 65.0205 198.548 64.3033 199.382 63.6283L201.918 61.7373C202.752 61.1189 203.628 60.5589 204.539 60.0612L207.215 58.4389L210.019 57.0959C210.931 56.6135 211.875 56.1936 212.845 55.8388C220.352 52.8729 228.429 51.6283 236.481 52.1966C244.101 52.7306 251.509 54.9312 258.185 58.643C270.184 65.3205 279.155 76.3574 283.24 89.4677C284.881 95.0466 285.656 100.844 285.539 106.658C285.399 111.695 284.53 116.686 282.96 121.474C281.648 125.459 279.871 129.274 277.664 132.842V132.702L288.741 152.503C288.268 151.676 284.679 145.455 277.427 132.831V132.766V132.702C279.599 129.143 281.347 125.342 282.638 121.378C284.17 116.612 285.013 111.652 285.141 106.647C285.235 100.885 284.449 95.1429 282.81 89.6181C278.73 76.638 269.823 65.7195 257.927 59.1157C251.312 55.4623 243.977 53.3022 236.439 52.7875C228.462 52.2256 220.461 53.463 213.027 56.4082C212.069 56.7594 211.135 57.1758 210.234 57.6545L207.462 58.9976L204.808 60.6092C203.901 61.113 203.035 61.6878 202.219 62.3282L199.705 64.1977C198.856 64.7994 198.136 65.5837 197.341 66.2605C196.546 66.9374 195.751 67.6358 195.042 68.4094L192.893 70.7516C187.507 76.9236 183.67 84.2895 181.697 92.2397C179.78 99.8453 179.563 107.78 181.064 115.479C182.529 122.759 185.532 129.642 189.874 135.667C197.695 146.564 209.361 154.087 222.514 156.715L226.93 157.392C228.391 157.521 229.852 157.553 231.228 157.639C233.998 157.751 236.774 157.621 239.522 157.252C248.707 156.036 257.407 152.41 264.738 146.744L265.576 146.1L264.932 146.948L264.846 146.723L288.773 152.428Z" fill="#263238"/>
<path d="M221.162 105.047C221.162 105.897 220.91 106.728 220.437 107.434C219.965 108.141 219.294 108.692 218.509 109.017C217.723 109.342 216.859 109.428 216.026 109.262C215.192 109.096 214.426 108.687 213.825 108.086C213.224 107.484 212.815 106.719 212.649 105.885C212.483 105.051 212.568 104.187 212.894 103.402C213.219 102.617 213.77 101.946 214.476 101.473C215.183 101.001 216.014 100.749 216.864 100.749C218.004 100.749 219.097 101.202 219.903 102.008C220.709 102.814 221.162 103.907 221.162 105.047Z" fill="#263238"/>
<path d="M238.31 105.047C238.31 105.897 238.058 106.728 237.586 107.434C237.114 108.141 236.442 108.692 235.657 109.017C234.872 109.342 234.008 109.428 233.174 109.262C232.34 109.096 231.575 108.687 230.974 108.086C230.373 107.484 229.963 106.719 229.797 105.885C229.632 105.051 229.717 104.187 230.042 103.402C230.367 102.617 230.918 101.946 231.625 101.473C232.332 101.001 233.162 100.749 234.012 100.749C235.152 100.749 236.245 101.202 237.051 102.008C237.857 102.814 238.31 103.907 238.31 105.047Z" fill="#263238"/>
<path d="M255.424 102.898C255.851 103.634 256.051 104.48 255.997 105.329C255.943 106.178 255.638 106.992 255.121 107.668C254.604 108.344 253.898 108.851 253.092 109.125C252.286 109.399 251.418 109.428 250.596 109.208C249.774 108.987 249.036 108.528 248.475 107.888C247.914 107.248 247.556 106.456 247.446 105.612C247.336 104.768 247.479 103.911 247.857 103.148C248.235 102.386 248.83 101.753 249.568 101.329C250.554 100.764 251.723 100.611 252.82 100.905C253.917 101.199 254.853 101.916 255.424 102.898Z" fill="#263238"/>
<path d="M499.999 441.884C499.999 442.045 390.775 442.163 256.109 442.163C121.443 442.163 12.2188 442.045 12.2188 441.884C12.2188 441.722 121.411 441.604 256.163 441.604C390.915 441.604 499.999 441.733 499.999 441.884Z" fill="#263238"/>
<path d="M361.988 442.152C364.509 438.316 367.91 435.137 371.907 432.879C375.904 430.622 380.383 429.352 384.97 429.174C400.667 428.636 408.51 442.152 408.51 442.152H361.988Z" fill="#455A64"/>
<path d="M392.073 441.733C391.865 440.964 391.711 440.182 391.611 439.391C390.767 435.664 388.545 432.394 385.39 430.237C384.695 429.848 384.024 429.418 383.381 428.948C384.192 429.072 384.966 429.373 385.648 429.829C387.36 430.829 388.828 432.198 389.943 433.838C391.058 435.477 391.793 437.345 392.094 439.305C392.263 440.107 392.255 440.935 392.073 441.733Z" fill="#263238"/>
<path d="M352.278 441.583V441.476C352.252 439.895 351.606 438.388 350.478 437.28C349.35 436.172 347.831 435.553 346.25 435.556H212.658C211.06 435.556 209.527 436.191 208.396 437.321C207.266 438.451 206.631 439.985 206.631 441.583H352.278Z" fill="#455A64"/>
<path d="M96.5234 207.513C96.5234 210.328 98.6723 378.107 98.6723 378.107L223.303 408.094H233.543L226.989 173.873H217.62L96.5234 207.513Z" fill="#263238"/>
<path d="M122.879 371.134L84.2539 441.916H119.559C113.241 441.293 175.428 441.916 175.428 441.916L119.559 427.1L137.04 387.401L135.546 371.134H122.879Z" fill="#263238"/>
<path d="M123.74 384.199L119.561 252.262L157.509 248.63L162.182 389.496L148.634 390.183L123.74 384.199Z" fill="#263238"/>
<path d="M167.49 394.717C167.49 394.717 167.49 394.513 167.49 394.105C167.49 393.696 167.49 393.084 167.49 392.3C167.49 390.688 167.49 388.335 167.49 385.295C167.49 379.16 167.436 370.253 167.404 359.047C167.404 336.624 167.351 305.069 167.308 268.474L167.576 268.743H122.72L122.999 268.464V274.545C122.999 310.236 122.999 343.446 122.945 371.123V371.177C111.32 392.482 101.683 410.167 94.9355 422.523C91.5618 428.69 88.908 433.525 87.0923 436.834C86.1898 438.467 85.4914 439.713 85.0187 440.583C84.5459 441.454 84.2773 441.851 84.2773 441.851C84.2773 441.851 84.503 441.4 84.9542 440.551C85.4055 439.702 86.0931 438.402 86.9634 436.759C88.7576 433.439 91.3684 428.582 94.6991 422.394L122.526 370.951V371.069C122.526 343.393 122.526 310.183 122.526 274.491V268.13H167.845V268.399C167.845 304.993 167.77 336.549 167.748 358.972C167.748 370.167 167.684 379.084 167.662 385.219C167.662 388.26 167.662 390.591 167.662 392.224C167.662 393.009 167.662 393.61 167.662 394.029C167.662 394.448 167.49 394.717 167.49 394.717Z" fill="#455A64"/>
<path d="M137.04 387.401C137.18 387.454 131.808 399.885 125.039 415.142C118.27 430.398 112.662 442.732 112.522 442.668C112.383 442.604 117.755 430.183 124.523 414.916C131.292 399.649 136.9 387.336 137.04 387.401Z" fill="#455A64"/>
<path d="M223.25 408.136C223.25 408.136 223.25 407.932 223.25 407.535C223.25 407.137 223.25 406.525 223.25 405.762C223.25 404.183 223.197 401.894 223.165 398.95C223.165 393.041 222.982 384.489 222.778 373.917C222.38 352.772 221.424 323.581 220.253 291.338C219.082 259.095 218.19 229.871 217.889 208.726C217.728 198.154 217.653 189.591 217.685 183.682C217.685 180.738 217.685 178.45 217.685 176.87C217.685 176.107 217.685 175.527 217.685 175.098C217.685 174.668 217.685 174.496 217.685 174.496C217.685 174.496 217.685 174.7 217.685 175.098C217.685 175.495 217.685 176.107 217.685 176.87C217.685 178.45 217.685 180.738 217.771 183.682C217.771 189.591 217.943 198.144 218.158 208.716C218.62 229.86 219.576 259.084 220.747 291.316C221.918 323.548 222.81 352.761 223.111 373.906C223.272 384.478 223.336 393.041 223.315 398.95C223.315 401.894 223.315 404.183 223.315 405.762C223.315 406.525 223.315 407.116 223.315 407.535C223.315 407.954 223.25 408.136 223.25 408.136Z" fill="#455A64"/>
<path d="M160.686 267.497C160.847 267.497 160.965 295.56 160.965 330.167C160.965 364.773 160.847 392.837 160.686 392.837C160.524 392.837 160.406 364.784 160.406 330.167C160.406 295.549 160.535 267.497 160.686 267.497Z" fill="#455A64"/>
<path d="M93.547 430.871C93.3438 430.639 93.1638 430.387 93.0098 430.119C92.8272 429.861 92.6231 429.55 92.3867 429.195C92.1024 428.774 91.844 428.336 91.6131 427.884C90.0378 425.042 88.8901 421.983 88.2072 418.805C87.2162 414.084 86.9913 409.234 87.5411 404.441C88.2135 398.573 89.7862 392.843 92.204 387.454C93.4832 384.672 95.1193 382.068 97.0711 379.708C97.5156 379.123 97.9926 378.563 98.5001 378.032C98.9943 377.495 99.467 376.957 99.9612 376.442C101.036 375.464 101.97 374.465 103.034 373.616C104.994 371.948 107.081 370.436 109.276 369.093C110.351 368.513 111.328 367.9 112.338 367.417C113.348 366.933 114.305 366.417 115.272 366.074C118.258 364.794 121.413 363.955 124.64 363.581C125.513 363.462 126.392 363.408 127.273 363.42C127.58 363.394 127.889 363.394 128.197 363.42C127.895 363.472 127.59 363.504 127.283 363.517C126.409 363.557 125.537 363.646 124.673 363.785C121.483 364.239 118.37 365.128 115.422 366.428C114.466 366.783 113.542 367.32 112.532 367.782C111.522 368.244 110.555 368.856 109.513 369.479C107.351 370.827 105.296 372.339 103.367 374.003C102.293 374.841 101.358 375.84 100.337 376.807C99.8538 377.312 99.3811 377.881 98.8976 378.376C98.4033 378.906 97.9371 379.462 97.5009 380.041C95.5801 382.369 93.9694 384.937 92.709 387.68C90.3146 393.013 88.7459 398.679 88.0568 404.484C87.4865 409.224 87.6678 414.025 88.594 418.709C89.2433 421.863 90.3281 424.911 91.8172 427.766C92.031 428.226 92.275 428.671 92.5478 429.098L93.1173 430.055C93.2785 430.317 93.4221 430.59 93.547 430.871Z" fill="#455A64"/>
</svg>
