<svg width="25" height="28" viewBox="0 0 25 28" fill="none" xmlns="http://www.w3.org/2000/svg">
<g clip-path="url(#clip0_144_278)">
<path d="M18.1451 9.78965C19.8962 11.0407 22.0414 11.7769 24.3582 11.7769V7.32093C23.9197 7.32102 23.4824 7.27527 23.0534 7.18443V10.6919C20.7367 10.6919 18.5918 9.95587 16.8404 8.70487V17.7982C16.8404 22.3473 13.1508 26.0346 8.59977 26.0346C6.90168 26.0346 5.3233 25.5216 4.01221 24.6415C5.50864 26.1709 7.59552 27.1195 9.90421 27.1195C14.4556 27.1195 18.1453 23.4321 18.1453 18.8829V9.78965H18.1451ZM19.7548 5.29415C18.8599 4.31699 18.2722 3.05418 18.1451 1.65805V1.08496H16.9086C17.2199 2.85937 18.2816 4.3753 19.7548 5.29415ZM6.89071 21.1508C6.39073 20.4957 6.12046 19.6941 6.12168 18.8699C6.12168 16.7894 7.80927 15.1025 9.89136 15.1025C10.2793 15.1023 10.665 15.1618 11.0348 15.279V10.7234C10.6026 10.6642 10.1665 10.639 9.73058 10.6483V14.1941C9.36058 14.0768 8.9747 14.0173 8.58655 14.0177C6.50455 14.0177 4.81705 15.7044 4.81705 17.7852C4.81705 19.2565 5.66052 20.5303 6.89071 21.1508Z" fill="#FF004F"/>
<path d="M16.8404 8.70477C18.5919 9.95577 20.7366 10.6918 23.0534 10.6918V7.18434C21.7602 6.90899 20.6154 6.23362 19.7547 5.29415C18.2814 4.37521 17.2199 2.85927 16.9086 1.08496H13.6609V18.8827C13.6535 20.9576 11.9688 22.6376 9.89117 22.6376C8.66698 22.6376 7.57929 22.0544 6.89051 21.1507C5.66051 20.5303 4.81695 19.2564 4.81695 17.7853C4.81695 15.7047 6.50445 14.0178 8.58645 14.0178C8.98536 14.0178 9.36982 14.0798 9.73048 14.1942V10.6484C5.25936 10.7407 1.66357 14.3921 1.66357 18.8828C1.66357 21.1246 2.55898 23.1568 4.01229 24.6417C5.32339 25.5216 6.90167 26.0348 8.59986 26.0348C13.1509 26.0348 16.8405 22.3472 16.8405 17.7982V8.70487L16.8404 8.70477Z" fill="#100609"/>
<path d="M23.0534 7.18406V6.23588C21.8872 6.23764 20.7441 5.91123 19.7547 5.29397C20.6305 6.25229 21.7838 6.91315 23.0534 7.18425V7.18406ZM16.9085 1.08469C16.8789 0.915151 16.8561 0.744479 16.8403 0.573094V0H12.3559V17.798C12.3487 19.8727 10.664 21.5527 8.58636 21.5527C7.99735 21.5535 7.41639 21.4159 6.89042 21.1507C7.5792 22.0542 8.66689 22.6373 9.89108 22.6373C11.9686 22.6373 13.6534 20.9575 13.6608 18.8827V1.08478H16.9085V1.08469ZM9.73067 10.6481V9.63853C9.35594 9.58731 8.97816 9.56169 8.59995 9.56184C4.04839 9.56184 0.358856 13.2494 0.358856 17.798C0.358856 20.6497 1.80889 23.163 4.01239 24.6413C2.55908 23.1565 1.66367 21.1242 1.66367 18.8826C1.66367 14.3919 5.25936 10.7405 9.73067 10.6481Z" fill="#00F2EA"/>
</g>
<defs>
<clipPath id="clip0_144_278">
<rect width="24" height="27.1875" fill="white" transform="translate(0.358856)"/>
</clipPath>
</defs>
</svg>
