<svg width="28" height="23" viewBox="0 0 28 23" fill="none" xmlns="http://www.w3.org/2000/svg">
<path d="M8.69112 22.9229C19.0281 22.9229 24.6805 14.3586 24.6805 6.9335C24.6805 6.69048 24.6805 6.44746 24.6653 6.20661C25.7651 5.41079 26.7144 4.42551 27.4688 3.29688C26.4435 3.7516 25.3559 4.05002 24.2422 4.18217C25.4149 3.47918 26.2924 2.37424 26.7115 1.07281C25.6081 1.72777 24.401 2.18936 23.1421 2.43763C22.2949 1.53679 21.1744 0.940286 19.954 0.740438C18.7336 0.540591 17.4814 0.74854 16.3911 1.3321C15.3008 1.91567 14.4333 2.84231 13.9227 3.96863C13.4121 5.09495 13.287 6.35815 13.5667 7.56275C11.3323 7.45081 9.14649 6.87022 7.15107 5.85868C5.15564 4.84714 3.39526 3.42725 1.9842 1.69121C1.26482 2.92804 1.04389 4.39255 1.36639 5.78656C1.68889 7.18056 2.53057 8.39924 3.72006 9.19445C2.83188 9.16444 1.96372 8.92266 1.18788 8.48926V8.56087C1.18772 9.8569 1.63536 11.1132 2.45502 12.1171C3.27469 13.121 4.41604 13.8109 5.68591 14.07C4.85811 14.2955 3.98962 14.3282 3.14722 14.1655C3.50588 15.2828 4.2049 16.26 5.14645 16.9603C6.088 17.6606 7.22496 18.0491 8.39819 18.0712C6.40629 19.6311 3.9479 20.4763 1.41788 20.471C0.969749 20.4713 0.521995 20.4452 0.0769272 20.3929C2.64658 22.0435 5.63702 22.9195 8.69112 22.9164" fill="#1DA1F2"/>
</svg>
